<mxfile host="Electron" modified="2023-04-20T21:52:13.643Z" agent="Mozilla/5.0 (Windows NT 10.0; Win64; x64) AppleWebKit/537.36 (KHTML, like Gecko) draw.io/21.1.2 Chrome/106.0.5249.199 Electron/21.4.3 Safari/537.36" etag="rKStp514yS3eCzSEAk6-" version="21.1.2" type="device" pages="8">
  <diagram name="Biểu đồ hoạt động đăng ký" id="Wc4y4wdHn2Kut6tgBbxF">
    <mxGraphModel dx="1416" dy="793" grid="1" gridSize="10" guides="1" tooltips="1" connect="1" arrows="1" fold="1" page="1" pageScale="1" pageWidth="827" pageHeight="1169" math="0" shadow="0">
      <root>
        <mxCell id="0" />
        <mxCell id="1" parent="0" />
        <mxCell id="LHnSskjwThcxkVw1F7R6-12" value="" style="rounded=0;whiteSpace=wrap;html=1;fillColor=none;" vertex="1" parent="1">
          <mxGeometry x="50" y="120" width="350" height="640" as="geometry" />
        </mxCell>
        <mxCell id="LHnSskjwThcxkVw1F7R6-7" value="" style="rounded=0;whiteSpace=wrap;html=1;fillColor=none;" vertex="1" parent="1">
          <mxGeometry x="400" y="120" width="400" height="640" as="geometry" />
        </mxCell>
        <mxCell id="LHnSskjwThcxkVw1F7R6-9" value="" style="ellipse;html=1;shape=startState;fillColor=#000000;strokeColor=#ff0000;" vertex="1" parent="1">
          <mxGeometry x="205" y="170" width="30" height="30" as="geometry" />
        </mxCell>
        <mxCell id="LHnSskjwThcxkVw1F7R6-10" value="" style="edgeStyle=orthogonalEdgeStyle;html=1;verticalAlign=bottom;endArrow=open;endSize=8;strokeColor=#ff0000;rounded=0;" edge="1" source="LHnSskjwThcxkVw1F7R6-9" parent="1" target="LHnSskjwThcxkVw1F7R6-11">
          <mxGeometry relative="1" as="geometry">
            <mxPoint x="220" y="260" as="targetPoint" />
          </mxGeometry>
        </mxCell>
        <mxCell id="LHnSskjwThcxkVw1F7R6-24" style="edgeStyle=orthogonalEdgeStyle;rounded=0;orthogonalLoop=1;jettySize=auto;html=1;entryX=0;entryY=0.5;entryDx=0;entryDy=0;strokeColor=#FF3333;" edge="1" parent="1" source="LHnSskjwThcxkVw1F7R6-11" target="LHnSskjwThcxkVw1F7R6-14">
          <mxGeometry relative="1" as="geometry" />
        </mxCell>
        <mxCell id="LHnSskjwThcxkVw1F7R6-11" value="Yêu cầu đăng ký" style="rounded=0;whiteSpace=wrap;html=1;" vertex="1" parent="1">
          <mxGeometry x="160" y="260" width="120" height="60" as="geometry" />
        </mxCell>
        <mxCell id="LHnSskjwThcxkVw1F7R6-25" style="edgeStyle=orthogonalEdgeStyle;rounded=0;orthogonalLoop=1;jettySize=auto;html=1;entryX=1;entryY=0.5;entryDx=0;entryDy=0;strokeColor=#FF3333;" edge="1" parent="1" source="LHnSskjwThcxkVw1F7R6-14" target="LHnSskjwThcxkVw1F7R6-15">
          <mxGeometry relative="1" as="geometry">
            <Array as="points">
              <mxPoint x="580" y="390" />
            </Array>
          </mxGeometry>
        </mxCell>
        <mxCell id="LHnSskjwThcxkVw1F7R6-14" value="Biểu mẫu đăng ký" style="rounded=0;whiteSpace=wrap;html=1;" vertex="1" parent="1">
          <mxGeometry x="520" y="260" width="120" height="60" as="geometry" />
        </mxCell>
        <mxCell id="LHnSskjwThcxkVw1F7R6-26" style="edgeStyle=orthogonalEdgeStyle;rounded=0;orthogonalLoop=1;jettySize=auto;html=1;entryX=0.5;entryY=0;entryDx=0;entryDy=0;strokeColor=#FF3333;" edge="1" parent="1" source="LHnSskjwThcxkVw1F7R6-15" target="LHnSskjwThcxkVw1F7R6-16">
          <mxGeometry relative="1" as="geometry" />
        </mxCell>
        <mxCell id="LHnSskjwThcxkVw1F7R6-15" value="Nhập thông tin" style="rounded=0;whiteSpace=wrap;html=1;" vertex="1" parent="1">
          <mxGeometry x="160" y="360" width="120" height="60" as="geometry" />
        </mxCell>
        <mxCell id="LHnSskjwThcxkVw1F7R6-29" style="edgeStyle=orthogonalEdgeStyle;rounded=0;orthogonalLoop=1;jettySize=auto;html=1;entryX=0;entryY=0.5;entryDx=0;entryDy=0;strokeColor=#FF3333;" edge="1" parent="1" source="LHnSskjwThcxkVw1F7R6-16" target="LHnSskjwThcxkVw1F7R6-17">
          <mxGeometry relative="1" as="geometry" />
        </mxCell>
        <mxCell id="LHnSskjwThcxkVw1F7R6-16" value="Chọn đăng ký" style="rounded=0;whiteSpace=wrap;html=1;" vertex="1" parent="1">
          <mxGeometry x="160" y="460" width="120" height="60" as="geometry" />
        </mxCell>
        <mxCell id="LHnSskjwThcxkVw1F7R6-28" style="edgeStyle=orthogonalEdgeStyle;rounded=0;orthogonalLoop=1;jettySize=auto;html=1;strokeColor=#FF3333;" edge="1" parent="1" source="LHnSskjwThcxkVw1F7R6-17" target="LHnSskjwThcxkVw1F7R6-18">
          <mxGeometry relative="1" as="geometry" />
        </mxCell>
        <mxCell id="LHnSskjwThcxkVw1F7R6-17" value="Kiểm tra thông tin" style="rounded=0;whiteSpace=wrap;html=1;" vertex="1" parent="1">
          <mxGeometry x="520" y="460" width="120" height="60" as="geometry" />
        </mxCell>
        <mxCell id="LHnSskjwThcxkVw1F7R6-18" value="" style="rhombus;whiteSpace=wrap;html=1;fontColor=#000000;fillColor=#ffffc0;strokeColor=#ff0000;" vertex="1" parent="1">
          <mxGeometry x="540" y="560" width="80" height="40" as="geometry" />
        </mxCell>
        <mxCell id="LHnSskjwThcxkVw1F7R6-19" value="yes" style="edgeStyle=orthogonalEdgeStyle;html=1;align=left;verticalAlign=bottom;endArrow=open;endSize=8;strokeColor=#ff0000;rounded=0;" edge="1" source="LHnSskjwThcxkVw1F7R6-18" parent="1" target="LHnSskjwThcxkVw1F7R6-21">
          <mxGeometry x="-1" relative="1" as="geometry">
            <mxPoint x="720" y="580" as="targetPoint" />
            <mxPoint as="offset" />
          </mxGeometry>
        </mxCell>
        <mxCell id="LHnSskjwThcxkVw1F7R6-20" value="no" style="edgeStyle=orthogonalEdgeStyle;html=1;align=left;verticalAlign=top;endArrow=open;endSize=8;strokeColor=#ff0000;rounded=0;entryX=0.5;entryY=0;entryDx=0;entryDy=0;" edge="1" source="LHnSskjwThcxkVw1F7R6-18" parent="1" target="LHnSskjwThcxkVw1F7R6-22">
          <mxGeometry x="-1" relative="1" as="geometry">
            <mxPoint x="580" y="650" as="targetPoint" />
          </mxGeometry>
        </mxCell>
        <mxCell id="8qlnS59iDD1u1BWttW_U-3" style="edgeStyle=orthogonalEdgeStyle;rounded=0;orthogonalLoop=1;jettySize=auto;html=1;entryX=0.5;entryY=0;entryDx=0;entryDy=0;strokeColor=#FF3333;" edge="1" parent="1" source="LHnSskjwThcxkVw1F7R6-21" target="LHnSskjwThcxkVw1F7R6-43">
          <mxGeometry relative="1" as="geometry" />
        </mxCell>
        <mxCell id="LHnSskjwThcxkVw1F7R6-21" value="Lưu thông tin" style="rounded=1;whiteSpace=wrap;html=1;arcSize=40;fontColor=#000000;fillColor=#ffffc0;strokeColor=#ff0000;" vertex="1" parent="1">
          <mxGeometry x="660" y="560" width="120" height="40" as="geometry" />
        </mxCell>
        <mxCell id="LHnSskjwThcxkVw1F7R6-22" value="Yêu cầu nhập lại" style="rounded=1;whiteSpace=wrap;html=1;arcSize=40;fontColor=#000000;fillColor=#ffffc0;strokeColor=#ff0000;" vertex="1" parent="1">
          <mxGeometry x="520" y="640" width="120" height="40" as="geometry" />
        </mxCell>
        <mxCell id="LHnSskjwThcxkVw1F7R6-23" value="" style="edgeStyle=orthogonalEdgeStyle;html=1;verticalAlign=bottom;endArrow=open;endSize=8;strokeColor=#ff0000;rounded=0;entryX=0;entryY=0.5;entryDx=0;entryDy=0;" edge="1" source="LHnSskjwThcxkVw1F7R6-22" parent="1" target="LHnSskjwThcxkVw1F7R6-15">
          <mxGeometry relative="1" as="geometry">
            <mxPoint x="410" y="470" as="targetPoint" />
            <Array as="points">
              <mxPoint x="120" y="660" />
              <mxPoint x="120" y="390" />
            </Array>
          </mxGeometry>
        </mxCell>
        <mxCell id="LHnSskjwThcxkVw1F7R6-32" value="&lt;font style=&quot;font-size: 16px;&quot;&gt;Người dùng&lt;/font&gt;" style="text;html=1;strokeColor=none;fillColor=none;align=center;verticalAlign=middle;whiteSpace=wrap;rounded=0;" vertex="1" parent="1">
          <mxGeometry x="160" y="130" width="120" height="30" as="geometry" />
        </mxCell>
        <mxCell id="LHnSskjwThcxkVw1F7R6-33" value="&lt;font style=&quot;font-size: 16px;&quot;&gt;Hệ thống&lt;/font&gt;" style="text;html=1;strokeColor=none;fillColor=none;align=center;verticalAlign=middle;whiteSpace=wrap;rounded=0;" vertex="1" parent="1">
          <mxGeometry x="520" y="130" width="160" height="30" as="geometry" />
        </mxCell>
        <mxCell id="LHnSskjwThcxkVw1F7R6-43" value="" style="ellipse;html=1;shape=endState;fillColor=#000000;strokeColor=#ff0000;" vertex="1" parent="1">
          <mxGeometry x="705" y="690" width="30" height="30" as="geometry" />
        </mxCell>
      </root>
    </mxGraphModel>
  </diagram>
  <diagram name="Biểu đồ hoạt động đăng nhập" id="3XxhIGEf3g9B8n2Su4WC">
    <mxGraphModel dx="1416" dy="793" grid="1" gridSize="10" guides="1" tooltips="1" connect="1" arrows="1" fold="1" page="1" pageScale="1" pageWidth="827" pageHeight="1169" math="0" shadow="0">
      <root>
        <mxCell id="RWRPwqbcS_QuVhYpUnvP-0" />
        <mxCell id="RWRPwqbcS_QuVhYpUnvP-1" parent="RWRPwqbcS_QuVhYpUnvP-0" />
        <mxCell id="RWRPwqbcS_QuVhYpUnvP-7" value="" style="rounded=0;whiteSpace=wrap;html=1;fillColor=none;" vertex="1" parent="RWRPwqbcS_QuVhYpUnvP-1">
          <mxGeometry x="50" y="120" width="350" height="600" as="geometry" />
        </mxCell>
        <mxCell id="RWRPwqbcS_QuVhYpUnvP-2" value="" style="rounded=0;whiteSpace=wrap;html=1;fillColor=none;" vertex="1" parent="RWRPwqbcS_QuVhYpUnvP-1">
          <mxGeometry x="400" y="120" width="360" height="600" as="geometry" />
        </mxCell>
        <mxCell id="RWRPwqbcS_QuVhYpUnvP-3" value="" style="ellipse;html=1;shape=startState;fillColor=#000000;strokeColor=#ff0000;" vertex="1" parent="RWRPwqbcS_QuVhYpUnvP-1">
          <mxGeometry x="205" y="170" width="30" height="30" as="geometry" />
        </mxCell>
        <mxCell id="RWRPwqbcS_QuVhYpUnvP-4" value="" style="edgeStyle=orthogonalEdgeStyle;html=1;verticalAlign=bottom;endArrow=open;endSize=8;strokeColor=#ff0000;rounded=0;" edge="1" parent="RWRPwqbcS_QuVhYpUnvP-1" source="RWRPwqbcS_QuVhYpUnvP-3" target="RWRPwqbcS_QuVhYpUnvP-6">
          <mxGeometry relative="1" as="geometry">
            <mxPoint x="220" y="260" as="targetPoint" />
          </mxGeometry>
        </mxCell>
        <mxCell id="RWRPwqbcS_QuVhYpUnvP-5" style="edgeStyle=orthogonalEdgeStyle;rounded=0;orthogonalLoop=1;jettySize=auto;html=1;entryX=0;entryY=0.5;entryDx=0;entryDy=0;strokeColor=#FF3333;" edge="1" parent="RWRPwqbcS_QuVhYpUnvP-1" source="RWRPwqbcS_QuVhYpUnvP-6" target="RWRPwqbcS_QuVhYpUnvP-9">
          <mxGeometry relative="1" as="geometry" />
        </mxCell>
        <mxCell id="RWRPwqbcS_QuVhYpUnvP-6" value="Yêu cầu đăng nhập" style="rounded=0;whiteSpace=wrap;html=1;" vertex="1" parent="RWRPwqbcS_QuVhYpUnvP-1">
          <mxGeometry x="160" y="260" width="120" height="60" as="geometry" />
        </mxCell>
        <mxCell id="RWRPwqbcS_QuVhYpUnvP-8" style="edgeStyle=orthogonalEdgeStyle;rounded=0;orthogonalLoop=1;jettySize=auto;html=1;entryX=1;entryY=0.5;entryDx=0;entryDy=0;strokeColor=#FF3333;" edge="1" parent="RWRPwqbcS_QuVhYpUnvP-1" source="RWRPwqbcS_QuVhYpUnvP-9" target="RWRPwqbcS_QuVhYpUnvP-11">
          <mxGeometry relative="1" as="geometry">
            <Array as="points">
              <mxPoint x="580" y="390" />
            </Array>
          </mxGeometry>
        </mxCell>
        <mxCell id="RWRPwqbcS_QuVhYpUnvP-9" value="Biểu mẫu đăng nhập" style="rounded=0;whiteSpace=wrap;html=1;" vertex="1" parent="RWRPwqbcS_QuVhYpUnvP-1">
          <mxGeometry x="520" y="260" width="120" height="60" as="geometry" />
        </mxCell>
        <mxCell id="RWRPwqbcS_QuVhYpUnvP-10" style="edgeStyle=orthogonalEdgeStyle;rounded=0;orthogonalLoop=1;jettySize=auto;html=1;entryX=0.5;entryY=0;entryDx=0;entryDy=0;strokeColor=#FF3333;" edge="1" parent="RWRPwqbcS_QuVhYpUnvP-1" source="RWRPwqbcS_QuVhYpUnvP-11" target="RWRPwqbcS_QuVhYpUnvP-13">
          <mxGeometry relative="1" as="geometry" />
        </mxCell>
        <mxCell id="RWRPwqbcS_QuVhYpUnvP-11" value="Nhập thông tin" style="rounded=0;whiteSpace=wrap;html=1;" vertex="1" parent="RWRPwqbcS_QuVhYpUnvP-1">
          <mxGeometry x="160" y="360" width="120" height="60" as="geometry" />
        </mxCell>
        <mxCell id="RWRPwqbcS_QuVhYpUnvP-12" style="edgeStyle=orthogonalEdgeStyle;rounded=0;orthogonalLoop=1;jettySize=auto;html=1;entryX=0;entryY=0.5;entryDx=0;entryDy=0;strokeColor=#FF3333;" edge="1" parent="RWRPwqbcS_QuVhYpUnvP-1" source="RWRPwqbcS_QuVhYpUnvP-13" target="RWRPwqbcS_QuVhYpUnvP-15">
          <mxGeometry relative="1" as="geometry" />
        </mxCell>
        <mxCell id="RWRPwqbcS_QuVhYpUnvP-13" value="Chọn đăng nhập" style="rounded=0;whiteSpace=wrap;html=1;" vertex="1" parent="RWRPwqbcS_QuVhYpUnvP-1">
          <mxGeometry x="160" y="460" width="120" height="60" as="geometry" />
        </mxCell>
        <mxCell id="RWRPwqbcS_QuVhYpUnvP-14" style="edgeStyle=orthogonalEdgeStyle;rounded=0;orthogonalLoop=1;jettySize=auto;html=1;strokeColor=#FF3333;" edge="1" parent="RWRPwqbcS_QuVhYpUnvP-1" source="RWRPwqbcS_QuVhYpUnvP-15" target="RWRPwqbcS_QuVhYpUnvP-16">
          <mxGeometry relative="1" as="geometry" />
        </mxCell>
        <mxCell id="RWRPwqbcS_QuVhYpUnvP-15" value="Kiểm tra thông tin" style="rounded=0;whiteSpace=wrap;html=1;" vertex="1" parent="RWRPwqbcS_QuVhYpUnvP-1">
          <mxGeometry x="520" y="460" width="120" height="60" as="geometry" />
        </mxCell>
        <mxCell id="RWRPwqbcS_QuVhYpUnvP-16" value="" style="rhombus;whiteSpace=wrap;html=1;fontColor=#000000;fillColor=#ffffc0;strokeColor=#ff0000;" vertex="1" parent="RWRPwqbcS_QuVhYpUnvP-1">
          <mxGeometry x="540" y="560" width="80" height="40" as="geometry" />
        </mxCell>
        <mxCell id="RWRPwqbcS_QuVhYpUnvP-17" value="yes" style="edgeStyle=orthogonalEdgeStyle;html=1;align=left;verticalAlign=bottom;endArrow=open;endSize=8;strokeColor=#ff0000;rounded=0;entryX=0;entryY=0.5;entryDx=0;entryDy=0;" edge="1" parent="RWRPwqbcS_QuVhYpUnvP-1" source="RWRPwqbcS_QuVhYpUnvP-16" target="RWRPwqbcS_QuVhYpUnvP-32">
          <mxGeometry x="-1" relative="1" as="geometry">
            <mxPoint x="660" y="580" as="targetPoint" />
            <mxPoint as="offset" />
          </mxGeometry>
        </mxCell>
        <mxCell id="RWRPwqbcS_QuVhYpUnvP-18" value="no" style="edgeStyle=orthogonalEdgeStyle;html=1;align=left;verticalAlign=top;endArrow=open;endSize=8;strokeColor=#ff0000;rounded=0;entryX=0.5;entryY=0;entryDx=0;entryDy=0;" edge="1" parent="RWRPwqbcS_QuVhYpUnvP-1" source="RWRPwqbcS_QuVhYpUnvP-16" target="RWRPwqbcS_QuVhYpUnvP-21">
          <mxGeometry x="-1" relative="1" as="geometry">
            <mxPoint x="580" y="650" as="targetPoint" />
          </mxGeometry>
        </mxCell>
        <mxCell id="RWRPwqbcS_QuVhYpUnvP-21" value="Yêu cầu nhập lại" style="rounded=1;whiteSpace=wrap;html=1;arcSize=40;fontColor=#000000;fillColor=#ffffc0;strokeColor=#ff0000;" vertex="1" parent="RWRPwqbcS_QuVhYpUnvP-1">
          <mxGeometry x="520" y="640" width="120" height="40" as="geometry" />
        </mxCell>
        <mxCell id="RWRPwqbcS_QuVhYpUnvP-22" value="" style="edgeStyle=orthogonalEdgeStyle;html=1;verticalAlign=bottom;endArrow=open;endSize=8;strokeColor=#ff0000;rounded=0;entryX=0;entryY=0.5;entryDx=0;entryDy=0;" edge="1" parent="RWRPwqbcS_QuVhYpUnvP-1" source="RWRPwqbcS_QuVhYpUnvP-21" target="RWRPwqbcS_QuVhYpUnvP-11">
          <mxGeometry relative="1" as="geometry">
            <mxPoint x="410" y="470" as="targetPoint" />
            <Array as="points">
              <mxPoint x="120" y="660" />
              <mxPoint x="120" y="390" />
            </Array>
          </mxGeometry>
        </mxCell>
        <mxCell id="RWRPwqbcS_QuVhYpUnvP-23" value="&lt;font style=&quot;font-size: 16px;&quot;&gt;Người dùng&lt;/font&gt;" style="text;html=1;strokeColor=none;fillColor=none;align=center;verticalAlign=middle;whiteSpace=wrap;rounded=0;" vertex="1" parent="RWRPwqbcS_QuVhYpUnvP-1">
          <mxGeometry x="160" y="130" width="120" height="30" as="geometry" />
        </mxCell>
        <mxCell id="RWRPwqbcS_QuVhYpUnvP-24" value="&lt;font style=&quot;font-size: 16px;&quot;&gt;Hệ thống&lt;/font&gt;" style="text;html=1;strokeColor=none;fillColor=none;align=center;verticalAlign=middle;whiteSpace=wrap;rounded=0;" vertex="1" parent="RWRPwqbcS_QuVhYpUnvP-1">
          <mxGeometry x="500" y="130" width="160" height="30" as="geometry" />
        </mxCell>
        <mxCell id="RWRPwqbcS_QuVhYpUnvP-32" value="" style="ellipse;html=1;shape=endState;fillColor=#000000;strokeColor=#ff0000;" vertex="1" parent="RWRPwqbcS_QuVhYpUnvP-1">
          <mxGeometry x="680" y="565" width="30" height="30" as="geometry" />
        </mxCell>
      </root>
    </mxGraphModel>
  </diagram>
  <diagram name="Biểu đồ hoạt động đăng xuất" id="f1LXUfupQa-9dQFUNdRO">
    <mxGraphModel dx="1180" dy="661" grid="1" gridSize="10" guides="1" tooltips="1" connect="1" arrows="1" fold="1" page="1" pageScale="1" pageWidth="827" pageHeight="1169" math="0" shadow="0">
      <root>
        <mxCell id="31RYcRfVjFD1sWRi06y3-0" />
        <mxCell id="31RYcRfVjFD1sWRi06y3-1" parent="31RYcRfVjFD1sWRi06y3-0" />
        <mxCell id="31RYcRfVjFD1sWRi06y3-3" value="" style="rounded=0;whiteSpace=wrap;html=1;fillColor=none;" vertex="1" parent="31RYcRfVjFD1sWRi06y3-1">
          <mxGeometry x="400" y="120" width="360" height="520" as="geometry" />
        </mxCell>
        <mxCell id="31RYcRfVjFD1sWRi06y3-2" value="" style="rounded=0;whiteSpace=wrap;html=1;fillColor=none;" vertex="1" parent="31RYcRfVjFD1sWRi06y3-1">
          <mxGeometry x="50" y="120" width="350" height="520" as="geometry" />
        </mxCell>
        <mxCell id="31RYcRfVjFD1sWRi06y3-4" value="" style="ellipse;html=1;shape=startState;fillColor=#000000;strokeColor=#ff0000;" vertex="1" parent="31RYcRfVjFD1sWRi06y3-1">
          <mxGeometry x="205" y="170" width="30" height="30" as="geometry" />
        </mxCell>
        <mxCell id="31RYcRfVjFD1sWRi06y3-5" value="" style="edgeStyle=orthogonalEdgeStyle;html=1;verticalAlign=bottom;endArrow=open;endSize=8;strokeColor=#ff0000;rounded=0;" edge="1" parent="31RYcRfVjFD1sWRi06y3-1" source="31RYcRfVjFD1sWRi06y3-4" target="31RYcRfVjFD1sWRi06y3-7">
          <mxGeometry relative="1" as="geometry">
            <mxPoint x="220" y="260" as="targetPoint" />
          </mxGeometry>
        </mxCell>
        <mxCell id="31RYcRfVjFD1sWRi06y3-6" style="edgeStyle=orthogonalEdgeStyle;rounded=0;orthogonalLoop=1;jettySize=auto;html=1;entryX=0;entryY=0.5;entryDx=0;entryDy=0;strokeColor=#FF3333;" edge="1" parent="31RYcRfVjFD1sWRi06y3-1" source="31RYcRfVjFD1sWRi06y3-7" target="31RYcRfVjFD1sWRi06y3-9">
          <mxGeometry relative="1" as="geometry" />
        </mxCell>
        <mxCell id="31RYcRfVjFD1sWRi06y3-7" value="Yêu cầu đăng xuất" style="rounded=0;whiteSpace=wrap;html=1;" vertex="1" parent="31RYcRfVjFD1sWRi06y3-1">
          <mxGeometry x="160" y="260" width="120" height="60" as="geometry" />
        </mxCell>
        <mxCell id="31RYcRfVjFD1sWRi06y3-8" style="edgeStyle=orthogonalEdgeStyle;rounded=0;orthogonalLoop=1;jettySize=auto;html=1;entryX=1;entryY=0.5;entryDx=0;entryDy=0;strokeColor=#FF3333;" edge="1" parent="31RYcRfVjFD1sWRi06y3-1" source="31RYcRfVjFD1sWRi06y3-9" target="31RYcRfVjFD1sWRi06y3-11">
          <mxGeometry relative="1" as="geometry">
            <Array as="points">
              <mxPoint x="580" y="390" />
            </Array>
          </mxGeometry>
        </mxCell>
        <mxCell id="31RYcRfVjFD1sWRi06y3-9" value="Biểu mẫu đăng nhập" style="rounded=0;whiteSpace=wrap;html=1;" vertex="1" parent="31RYcRfVjFD1sWRi06y3-1">
          <mxGeometry x="520" y="260" width="120" height="60" as="geometry" />
        </mxCell>
        <mxCell id="2mmkEExbcU7ai4RaMFpu-3" style="edgeStyle=orthogonalEdgeStyle;rounded=0;orthogonalLoop=1;jettySize=auto;html=1;entryX=0.5;entryY=0;entryDx=0;entryDy=0;strokeColor=#FF3333;" edge="1" parent="31RYcRfVjFD1sWRi06y3-1" source="31RYcRfVjFD1sWRi06y3-11" target="2mmkEExbcU7ai4RaMFpu-0">
          <mxGeometry relative="1" as="geometry">
            <Array as="points">
              <mxPoint x="220" y="440" />
              <mxPoint x="500" y="440" />
            </Array>
          </mxGeometry>
        </mxCell>
        <mxCell id="31RYcRfVjFD1sWRi06y3-11" value="Nhập thông tin" style="rounded=0;whiteSpace=wrap;html=1;" vertex="1" parent="31RYcRfVjFD1sWRi06y3-1">
          <mxGeometry x="160" y="360" width="120" height="60" as="geometry" />
        </mxCell>
        <mxCell id="31RYcRfVjFD1sWRi06y3-21" value="&lt;font style=&quot;font-size: 16px;&quot;&gt;Người dùng&lt;/font&gt;" style="text;html=1;strokeColor=none;fillColor=none;align=center;verticalAlign=middle;whiteSpace=wrap;rounded=0;" vertex="1" parent="31RYcRfVjFD1sWRi06y3-1">
          <mxGeometry x="160" y="130" width="120" height="30" as="geometry" />
        </mxCell>
        <mxCell id="31RYcRfVjFD1sWRi06y3-22" value="&lt;font style=&quot;font-size: 16px;&quot;&gt;Hệ thống&lt;/font&gt;" style="text;html=1;strokeColor=none;fillColor=none;align=center;verticalAlign=middle;whiteSpace=wrap;rounded=0;" vertex="1" parent="31RYcRfVjFD1sWRi06y3-1">
          <mxGeometry x="500" y="130" width="160" height="30" as="geometry" />
        </mxCell>
        <mxCell id="2mmkEExbcU7ai4RaMFpu-0" value="" style="rhombus;whiteSpace=wrap;html=1;fontColor=#000000;fillColor=#ffffc0;strokeColor=#ff0000;" vertex="1" parent="31RYcRfVjFD1sWRi06y3-1">
          <mxGeometry x="460" y="480" width="80" height="40" as="geometry" />
        </mxCell>
        <mxCell id="2mmkEExbcU7ai4RaMFpu-1" value="yes" style="edgeStyle=orthogonalEdgeStyle;html=1;align=left;verticalAlign=bottom;endArrow=open;endSize=8;strokeColor=#ff0000;rounded=0;" edge="1" source="2mmkEExbcU7ai4RaMFpu-0" parent="31RYcRfVjFD1sWRi06y3-1">
          <mxGeometry x="-1" relative="1" as="geometry">
            <mxPoint x="600" y="500" as="targetPoint" />
            <mxPoint as="offset" />
          </mxGeometry>
        </mxCell>
        <mxCell id="2mmkEExbcU7ai4RaMFpu-2" value="no" style="edgeStyle=orthogonalEdgeStyle;html=1;align=left;verticalAlign=top;endArrow=open;endSize=8;strokeColor=#ff0000;rounded=0;entryX=0.5;entryY=0;entryDx=0;entryDy=0;" edge="1" source="2mmkEExbcU7ai4RaMFpu-0" parent="31RYcRfVjFD1sWRi06y3-1" target="2mmkEExbcU7ai4RaMFpu-4">
          <mxGeometry x="-1" relative="1" as="geometry">
            <mxPoint x="500" y="580" as="targetPoint" />
            <Array as="points" />
            <mxPoint as="offset" />
          </mxGeometry>
        </mxCell>
        <mxCell id="2mmkEExbcU7ai4RaMFpu-4" value="" style="ellipse;html=1;shape=endState;fillColor=#000000;strokeColor=#ff0000;" vertex="1" parent="31RYcRfVjFD1sWRi06y3-1">
          <mxGeometry x="485" y="570" width="30" height="30" as="geometry" />
        </mxCell>
        <mxCell id="2mmkEExbcU7ai4RaMFpu-6" value="Đăng nhập lại để tiếp tục" style="rounded=1;whiteSpace=wrap;html=1;arcSize=40;fontColor=#000000;fillColor=#ffffc0;strokeColor=#ff0000;" vertex="1" parent="31RYcRfVjFD1sWRi06y3-1">
          <mxGeometry x="600" y="480" width="110" height="40" as="geometry" />
        </mxCell>
      </root>
    </mxGraphModel>
  </diagram>
  <diagram name="Biểu đồ hoạt động quản lý nhà ga" id="hVghNnr25zuqkxfxIfiP">
    <mxGraphModel dx="2023" dy="1133" grid="1" gridSize="10" guides="1" tooltips="1" connect="1" arrows="1" fold="1" page="1" pageScale="1" pageWidth="827" pageHeight="1169" math="0" shadow="0">
      <root>
        <mxCell id="Ut-QOCIsmQ8_g6fCzKnS-0" />
        <mxCell id="Ut-QOCIsmQ8_g6fCzKnS-1" parent="Ut-QOCIsmQ8_g6fCzKnS-0" />
        <mxCell id="Ut-QOCIsmQ8_g6fCzKnS-2" value="" style="rounded=0;whiteSpace=wrap;html=1;fillColor=none;" vertex="1" parent="Ut-QOCIsmQ8_g6fCzKnS-1">
          <mxGeometry x="400" y="120" width="600" height="880" as="geometry" />
        </mxCell>
        <mxCell id="Ut-QOCIsmQ8_g6fCzKnS-3" value="" style="ellipse;html=1;shape=startState;fillColor=#000000;strokeColor=#ff0000;" vertex="1" parent="Ut-QOCIsmQ8_g6fCzKnS-1">
          <mxGeometry x="205" y="170" width="30" height="30" as="geometry" />
        </mxCell>
        <mxCell id="Ut-QOCIsmQ8_g6fCzKnS-4" value="" style="edgeStyle=orthogonalEdgeStyle;html=1;verticalAlign=bottom;endArrow=open;endSize=8;strokeColor=#ff0000;rounded=0;" edge="1" parent="Ut-QOCIsmQ8_g6fCzKnS-1" source="Ut-QOCIsmQ8_g6fCzKnS-3" target="Ut-QOCIsmQ8_g6fCzKnS-6">
          <mxGeometry relative="1" as="geometry">
            <mxPoint x="220" y="260" as="targetPoint" />
          </mxGeometry>
        </mxCell>
        <mxCell id="Ut-QOCIsmQ8_g6fCzKnS-5" style="edgeStyle=orthogonalEdgeStyle;rounded=0;orthogonalLoop=1;jettySize=auto;html=1;entryX=0;entryY=0.5;entryDx=0;entryDy=0;strokeColor=#FF3333;" edge="1" parent="Ut-QOCIsmQ8_g6fCzKnS-1" source="Ut-QOCIsmQ8_g6fCzKnS-6" target="Ut-QOCIsmQ8_g6fCzKnS-9">
          <mxGeometry relative="1" as="geometry" />
        </mxCell>
        <mxCell id="Ut-QOCIsmQ8_g6fCzKnS-6" value="Quản lý thông tin&lt;br&gt;nhà ga" style="rounded=0;whiteSpace=wrap;html=1;" vertex="1" parent="Ut-QOCIsmQ8_g6fCzKnS-1">
          <mxGeometry x="160" y="260" width="120" height="60" as="geometry" />
        </mxCell>
        <mxCell id="Ut-QOCIsmQ8_g6fCzKnS-7" value="" style="rounded=0;whiteSpace=wrap;html=1;fillColor=none;" vertex="1" parent="Ut-QOCIsmQ8_g6fCzKnS-1">
          <mxGeometry x="50" y="120" width="350" height="880" as="geometry" />
        </mxCell>
        <mxCell id="Ut-QOCIsmQ8_g6fCzKnS-8" style="edgeStyle=orthogonalEdgeStyle;rounded=0;orthogonalLoop=1;jettySize=auto;html=1;entryX=0.5;entryY=0;entryDx=0;entryDy=0;strokeColor=#FF3333;" edge="1" parent="Ut-QOCIsmQ8_g6fCzKnS-1" source="Ut-QOCIsmQ8_g6fCzKnS-9" target="Ut-QOCIsmQ8_g6fCzKnS-10">
          <mxGeometry relative="1" as="geometry" />
        </mxCell>
        <mxCell id="Ut-QOCIsmQ8_g6fCzKnS-9" value="Kiểm tra thông tin" style="rounded=0;whiteSpace=wrap;html=1;" vertex="1" parent="Ut-QOCIsmQ8_g6fCzKnS-1">
          <mxGeometry x="520" y="260" width="120" height="60" as="geometry" />
        </mxCell>
        <mxCell id="Ut-QOCIsmQ8_g6fCzKnS-10" value="" style="rhombus;whiteSpace=wrap;html=1;fontColor=#000000;fillColor=#ffffc0;strokeColor=#ff0000;" vertex="1" parent="Ut-QOCIsmQ8_g6fCzKnS-1">
          <mxGeometry x="540" y="360" width="80" height="40" as="geometry" />
        </mxCell>
        <mxCell id="Ut-QOCIsmQ8_g6fCzKnS-11" value="yes" style="edgeStyle=orthogonalEdgeStyle;html=1;align=left;verticalAlign=bottom;endArrow=open;endSize=8;strokeColor=#ff0000;rounded=0;" edge="1" parent="Ut-QOCIsmQ8_g6fCzKnS-1" source="Ut-QOCIsmQ8_g6fCzKnS-10" target="Ut-QOCIsmQ8_g6fCzKnS-14">
          <mxGeometry x="-1" relative="1" as="geometry">
            <mxPoint x="720" y="380" as="targetPoint" />
            <mxPoint as="offset" />
          </mxGeometry>
        </mxCell>
        <mxCell id="Ut-QOCIsmQ8_g6fCzKnS-12" value="no" style="edgeStyle=orthogonalEdgeStyle;html=1;align=left;verticalAlign=top;endArrow=open;endSize=8;strokeColor=#ff0000;rounded=0;entryX=0.5;entryY=1;entryDx=0;entryDy=0;" edge="1" parent="Ut-QOCIsmQ8_g6fCzKnS-1" source="Ut-QOCIsmQ8_g6fCzKnS-10" target="Ut-QOCIsmQ8_g6fCzKnS-6">
          <mxGeometry x="-1" relative="1" as="geometry">
            <mxPoint x="220" y="380" as="targetPoint" />
          </mxGeometry>
        </mxCell>
        <mxCell id="Ut-QOCIsmQ8_g6fCzKnS-13" style="edgeStyle=orthogonalEdgeStyle;rounded=0;orthogonalLoop=1;jettySize=auto;html=1;entryX=0.5;entryY=0;entryDx=0;entryDy=0;strokeColor=#FF3333;" edge="1" parent="Ut-QOCIsmQ8_g6fCzKnS-1" source="Ut-QOCIsmQ8_g6fCzKnS-14" target="Ut-QOCIsmQ8_g6fCzKnS-21">
          <mxGeometry relative="1" as="geometry" />
        </mxCell>
        <mxCell id="Ut-QOCIsmQ8_g6fCzKnS-14" value="Hiển thị thông tin" style="rounded=1;whiteSpace=wrap;html=1;arcSize=40;fontColor=#000000;fillColor=#ffffc0;strokeColor=#ff0000;" vertex="1" parent="Ut-QOCIsmQ8_g6fCzKnS-1">
          <mxGeometry x="660" y="360" width="120" height="40" as="geometry" />
        </mxCell>
        <mxCell id="Ut-QOCIsmQ8_g6fCzKnS-15" value="&lt;font style=&quot;font-size: 16px;&quot;&gt;Quản trị hệ thống&lt;/font&gt;" style="text;html=1;strokeColor=none;fillColor=none;align=center;verticalAlign=middle;whiteSpace=wrap;rounded=0;" vertex="1" parent="Ut-QOCIsmQ8_g6fCzKnS-1">
          <mxGeometry x="120" y="130" width="200" height="30" as="geometry" />
        </mxCell>
        <mxCell id="Ut-QOCIsmQ8_g6fCzKnS-16" value="&lt;font style=&quot;font-size: 16px;&quot;&gt;Hệ thống&lt;/font&gt;" style="text;html=1;strokeColor=none;fillColor=none;align=center;verticalAlign=middle;whiteSpace=wrap;rounded=0;" vertex="1" parent="Ut-QOCIsmQ8_g6fCzKnS-1">
          <mxGeometry x="620" y="130" width="160" height="30" as="geometry" />
        </mxCell>
        <mxCell id="Ut-QOCIsmQ8_g6fCzKnS-17" style="rounded=0;orthogonalLoop=1;jettySize=auto;html=1;exitX=0.5;exitY=1;exitDx=0;exitDy=0;strokeColor=#FF3333;entryX=0.5;entryY=0;entryDx=0;entryDy=0;" edge="1" parent="Ut-QOCIsmQ8_g6fCzKnS-1" source="Ut-QOCIsmQ8_g6fCzKnS-21" target="Ut-QOCIsmQ8_g6fCzKnS-23">
          <mxGeometry relative="1" as="geometry" />
        </mxCell>
        <mxCell id="Ut-QOCIsmQ8_g6fCzKnS-18" style="rounded=0;orthogonalLoop=1;jettySize=auto;html=1;exitX=0.5;exitY=1;exitDx=0;exitDy=0;entryX=0.5;entryY=0;entryDx=0;entryDy=0;strokeColor=#FF3333;" edge="1" parent="Ut-QOCIsmQ8_g6fCzKnS-1" source="Ut-QOCIsmQ8_g6fCzKnS-21" target="Ut-QOCIsmQ8_g6fCzKnS-24">
          <mxGeometry relative="1" as="geometry" />
        </mxCell>
        <mxCell id="Ut-QOCIsmQ8_g6fCzKnS-19" style="rounded=0;orthogonalLoop=1;jettySize=auto;html=1;entryX=0.5;entryY=0;entryDx=0;entryDy=0;strokeColor=#FF3333;" edge="1" parent="Ut-QOCIsmQ8_g6fCzKnS-1" target="Ut-QOCIsmQ8_g6fCzKnS-25">
          <mxGeometry relative="1" as="geometry">
            <mxPoint x="720" y="520" as="sourcePoint" />
          </mxGeometry>
        </mxCell>
        <mxCell id="Ut-QOCIsmQ8_g6fCzKnS-20" style="rounded=0;orthogonalLoop=1;jettySize=auto;html=1;entryX=0.5;entryY=0;entryDx=0;entryDy=0;strokeColor=#FF3333;" edge="1" parent="Ut-QOCIsmQ8_g6fCzKnS-1" target="Ut-QOCIsmQ8_g6fCzKnS-27">
          <mxGeometry relative="1" as="geometry">
            <mxPoint x="720" y="520" as="sourcePoint" />
          </mxGeometry>
        </mxCell>
        <mxCell id="Ut-QOCIsmQ8_g6fCzKnS-21" value="Yêu cầu chọn chức năng" style="rhombus;whiteSpace=wrap;html=1;fontColor=#000000;fillColor=#ffffc0;strokeColor=#ff0000;" vertex="1" parent="Ut-QOCIsmQ8_g6fCzKnS-1">
          <mxGeometry x="630" y="440" width="180" height="80" as="geometry" />
        </mxCell>
        <mxCell id="Ut-QOCIsmQ8_g6fCzKnS-22" style="edgeStyle=orthogonalEdgeStyle;rounded=0;orthogonalLoop=1;jettySize=auto;html=1;entryX=1;entryY=0.5;entryDx=0;entryDy=0;strokeColor=#FF3333;" edge="1" parent="Ut-QOCIsmQ8_g6fCzKnS-1" source="Ut-QOCIsmQ8_g6fCzKnS-23" target="Ut-QOCIsmQ8_g6fCzKnS-28">
          <mxGeometry relative="1" as="geometry" />
        </mxCell>
        <mxCell id="Ut-QOCIsmQ8_g6fCzKnS-23" value="Thêm mới" style="rounded=1;whiteSpace=wrap;html=1;arcSize=40;fontColor=#000000;fillColor=#ffffc0;strokeColor=#ff0000;" vertex="1" parent="Ut-QOCIsmQ8_g6fCzKnS-1">
          <mxGeometry x="440" y="560" width="120" height="40" as="geometry" />
        </mxCell>
        <mxCell id="Ut-QOCIsmQ8_g6fCzKnS-24" value="Sửa thông tin" style="rounded=1;whiteSpace=wrap;html=1;arcSize=40;fontColor=#000000;fillColor=#ffffc0;strokeColor=#ff0000;" vertex="1" parent="Ut-QOCIsmQ8_g6fCzKnS-1">
          <mxGeometry x="580" y="560" width="120" height="40" as="geometry" />
        </mxCell>
        <mxCell id="Ut-QOCIsmQ8_g6fCzKnS-25" value="Xoá" style="rounded=1;whiteSpace=wrap;html=1;arcSize=40;fontColor=#000000;fillColor=#ffffc0;strokeColor=#ff0000;" vertex="1" parent="Ut-QOCIsmQ8_g6fCzKnS-1">
          <mxGeometry x="720" y="560" width="120" height="40" as="geometry" />
        </mxCell>
        <mxCell id="Ut-QOCIsmQ8_g6fCzKnS-26" style="rounded=0;orthogonalLoop=1;jettySize=auto;html=1;entryX=1;entryY=0.5;entryDx=0;entryDy=0;strokeColor=#FF3333;exitX=0.5;exitY=1;exitDx=0;exitDy=0;" edge="1" parent="Ut-QOCIsmQ8_g6fCzKnS-1" source="Ut-QOCIsmQ8_g6fCzKnS-27" target="Ut-QOCIsmQ8_g6fCzKnS-31">
          <mxGeometry relative="1" as="geometry" />
        </mxCell>
        <mxCell id="Ut-QOCIsmQ8_g6fCzKnS-27" value="Tìm kiếm/Truy vấn" style="rounded=1;whiteSpace=wrap;html=1;arcSize=40;fontColor=#000000;fillColor=#ffffc0;strokeColor=#ff0000;" vertex="1" parent="Ut-QOCIsmQ8_g6fCzKnS-1">
          <mxGeometry x="860" y="560" width="120" height="40" as="geometry" />
        </mxCell>
        <mxCell id="Ut-QOCIsmQ8_g6fCzKnS-28" value="Nhập thông tin" style="rounded=1;whiteSpace=wrap;html=1;arcSize=40;fontColor=#000000;fillColor=#ffffc0;strokeColor=#ff0000;" vertex="1" parent="Ut-QOCIsmQ8_g6fCzKnS-1">
          <mxGeometry x="80" y="560" width="120" height="40" as="geometry" />
        </mxCell>
        <mxCell id="Ut-QOCIsmQ8_g6fCzKnS-29" value="" style="edgeStyle=orthogonalEdgeStyle;html=1;verticalAlign=bottom;endArrow=open;endSize=8;strokeColor=#ff0000;rounded=0;entryX=0;entryY=0.5;entryDx=0;entryDy=0;" edge="1" parent="Ut-QOCIsmQ8_g6fCzKnS-1" source="Ut-QOCIsmQ8_g6fCzKnS-28" target="Ut-QOCIsmQ8_g6fCzKnS-40">
          <mxGeometry relative="1" as="geometry">
            <mxPoint x="140" y="660" as="targetPoint" />
            <Array as="points">
              <mxPoint x="140" y="860" />
            </Array>
          </mxGeometry>
        </mxCell>
        <mxCell id="Ut-QOCIsmQ8_g6fCzKnS-30" style="edgeStyle=orthogonalEdgeStyle;rounded=0;orthogonalLoop=1;jettySize=auto;html=1;entryX=0;entryY=0.5;entryDx=0;entryDy=0;strokeColor=#FF3333;" edge="1" parent="Ut-QOCIsmQ8_g6fCzKnS-1" source="Ut-QOCIsmQ8_g6fCzKnS-31" target="Ut-QOCIsmQ8_g6fCzKnS-34">
          <mxGeometry relative="1" as="geometry">
            <Array as="points">
              <mxPoint x="310" y="700" />
            </Array>
          </mxGeometry>
        </mxCell>
        <mxCell id="Ut-QOCIsmQ8_g6fCzKnS-31" value="Nhập mã nhà ga" style="rounded=1;whiteSpace=wrap;html=1;arcSize=40;fontColor=#000000;fillColor=#ffffc0;strokeColor=#ff0000;" vertex="1" parent="Ut-QOCIsmQ8_g6fCzKnS-1">
          <mxGeometry x="250" y="640" width="120" height="40" as="geometry" />
        </mxCell>
        <mxCell id="Ut-QOCIsmQ8_g6fCzKnS-32" style="rounded=0;orthogonalLoop=1;jettySize=auto;html=1;strokeColor=#FF3333;entryX=1;entryY=0.5;entryDx=0;entryDy=0;" edge="1" parent="Ut-QOCIsmQ8_g6fCzKnS-1" target="Ut-QOCIsmQ8_g6fCzKnS-31">
          <mxGeometry relative="1" as="geometry">
            <mxPoint x="640" y="600" as="sourcePoint" />
            <mxPoint x="310" y="640" as="targetPoint" />
          </mxGeometry>
        </mxCell>
        <mxCell id="Ut-QOCIsmQ8_g6fCzKnS-33" style="rounded=0;orthogonalLoop=1;jettySize=auto;html=1;entryX=1;entryY=0.5;entryDx=0;entryDy=0;strokeColor=#FF3333;" edge="1" parent="Ut-QOCIsmQ8_g6fCzKnS-1" target="Ut-QOCIsmQ8_g6fCzKnS-31">
          <mxGeometry relative="1" as="geometry">
            <mxPoint x="780" y="600" as="sourcePoint" />
            <mxPoint x="340" y="640" as="targetPoint" />
          </mxGeometry>
        </mxCell>
        <mxCell id="Ut-QOCIsmQ8_g6fCzKnS-34" value="Kiểm tra thông tin" style="rounded=1;whiteSpace=wrap;html=1;arcSize=40;fontColor=#000000;fillColor=#ffffc0;strokeColor=#ff0000;" vertex="1" parent="Ut-QOCIsmQ8_g6fCzKnS-1">
          <mxGeometry x="660" y="680" width="120" height="40" as="geometry" />
        </mxCell>
        <mxCell id="Ut-QOCIsmQ8_g6fCzKnS-35" style="edgeStyle=orthogonalEdgeStyle;rounded=0;orthogonalLoop=1;jettySize=auto;html=1;entryX=0.5;entryY=0;entryDx=0;entryDy=0;strokeColor=#FF3333;" edge="1" parent="Ut-QOCIsmQ8_g6fCzKnS-1" source="Ut-QOCIsmQ8_g6fCzKnS-36" target="Ut-QOCIsmQ8_g6fCzKnS-40">
          <mxGeometry relative="1" as="geometry" />
        </mxCell>
        <mxCell id="Ut-QOCIsmQ8_g6fCzKnS-36" value="" style="rhombus;whiteSpace=wrap;html=1;fontColor=#000000;fillColor=#ffffc0;strokeColor=#ff0000;" vertex="1" parent="Ut-QOCIsmQ8_g6fCzKnS-1">
          <mxGeometry x="680" y="760" width="80" height="40" as="geometry" />
        </mxCell>
        <mxCell id="Ut-QOCIsmQ8_g6fCzKnS-37" value="no" style="edgeStyle=orthogonalEdgeStyle;html=1;align=left;verticalAlign=bottom;endArrow=open;endSize=8;strokeColor=#ff0000;rounded=0;entryX=0.25;entryY=1;entryDx=0;entryDy=0;" edge="1" parent="Ut-QOCIsmQ8_g6fCzKnS-1" source="Ut-QOCIsmQ8_g6fCzKnS-36" target="Ut-QOCIsmQ8_g6fCzKnS-31">
          <mxGeometry x="-0.96" relative="1" as="geometry">
            <mxPoint x="560" y="780" as="targetPoint" />
            <Array as="points">
              <mxPoint x="280" y="780" />
            </Array>
            <mxPoint as="offset" />
          </mxGeometry>
        </mxCell>
        <mxCell id="Ut-QOCIsmQ8_g6fCzKnS-38" value="" style="ellipse;html=1;shape=endState;fillColor=#000000;strokeColor=#ff0000;" vertex="1" parent="Ut-QOCIsmQ8_g6fCzKnS-1">
          <mxGeometry x="705" y="930" width="30" height="30" as="geometry" />
        </mxCell>
        <mxCell id="Ut-QOCIsmQ8_g6fCzKnS-39" style="edgeStyle=orthogonalEdgeStyle;rounded=0;orthogonalLoop=1;jettySize=auto;html=1;entryX=0.5;entryY=0;entryDx=0;entryDy=0;strokeColor=#FF3333;" edge="1" parent="Ut-QOCIsmQ8_g6fCzKnS-1" source="Ut-QOCIsmQ8_g6fCzKnS-40" target="Ut-QOCIsmQ8_g6fCzKnS-38">
          <mxGeometry relative="1" as="geometry" />
        </mxCell>
        <mxCell id="Ut-QOCIsmQ8_g6fCzKnS-40" value="Cập nhật trạng thái" style="rounded=1;whiteSpace=wrap;html=1;arcSize=40;fontColor=#000000;fillColor=#ffffc0;strokeColor=#ff0000;" vertex="1" parent="Ut-QOCIsmQ8_g6fCzKnS-1">
          <mxGeometry x="660" y="840" width="120" height="40" as="geometry" />
        </mxCell>
        <mxCell id="Ut-QOCIsmQ8_g6fCzKnS-41" value="yes" style="text;html=1;strokeColor=none;fillColor=none;align=center;verticalAlign=middle;whiteSpace=wrap;rounded=0;" vertex="1" parent="Ut-QOCIsmQ8_g6fCzKnS-1">
          <mxGeometry x="705" y="790" width="60" height="30" as="geometry" />
        </mxCell>
      </root>
    </mxGraphModel>
  </diagram>
  <diagram id="7GWyjqAuaKuDMKUTWifF" name="Biểu đồ hoạt động quản lý tàu">
    <mxGraphModel dx="1180" dy="661" grid="1" gridSize="10" guides="1" tooltips="1" connect="1" arrows="1" fold="1" page="1" pageScale="1" pageWidth="827" pageHeight="1169" math="0" shadow="0">
      <root>
        <mxCell id="0" />
        <mxCell id="1" parent="0" />
        <mxCell id="ZQmZOdDf3GveqMF7tPYy-1" value="" style="rounded=0;whiteSpace=wrap;html=1;fillColor=none;" vertex="1" parent="1">
          <mxGeometry x="400" y="120" width="600" height="880" as="geometry" />
        </mxCell>
        <mxCell id="ZQmZOdDf3GveqMF7tPYy-2" value="" style="ellipse;html=1;shape=startState;fillColor=#000000;strokeColor=#ff0000;" vertex="1" parent="1">
          <mxGeometry x="205" y="170" width="30" height="30" as="geometry" />
        </mxCell>
        <mxCell id="ZQmZOdDf3GveqMF7tPYy-3" value="" style="edgeStyle=orthogonalEdgeStyle;html=1;verticalAlign=bottom;endArrow=open;endSize=8;strokeColor=#ff0000;rounded=0;" edge="1" parent="1" source="ZQmZOdDf3GveqMF7tPYy-2" target="ZQmZOdDf3GveqMF7tPYy-5">
          <mxGeometry relative="1" as="geometry">
            <mxPoint x="220" y="260" as="targetPoint" />
          </mxGeometry>
        </mxCell>
        <mxCell id="ZQmZOdDf3GveqMF7tPYy-4" style="edgeStyle=orthogonalEdgeStyle;rounded=0;orthogonalLoop=1;jettySize=auto;html=1;entryX=0;entryY=0.5;entryDx=0;entryDy=0;strokeColor=#FF3333;" edge="1" parent="1" source="ZQmZOdDf3GveqMF7tPYy-5" target="ZQmZOdDf3GveqMF7tPYy-8">
          <mxGeometry relative="1" as="geometry" />
        </mxCell>
        <mxCell id="ZQmZOdDf3GveqMF7tPYy-5" value="Quản lý thông tin tàu" style="rounded=0;whiteSpace=wrap;html=1;" vertex="1" parent="1">
          <mxGeometry x="160" y="260" width="120" height="60" as="geometry" />
        </mxCell>
        <mxCell id="ZQmZOdDf3GveqMF7tPYy-6" value="" style="rounded=0;whiteSpace=wrap;html=1;fillColor=none;" vertex="1" parent="1">
          <mxGeometry x="50" y="120" width="350" height="880" as="geometry" />
        </mxCell>
        <mxCell id="ZQmZOdDf3GveqMF7tPYy-33" style="edgeStyle=orthogonalEdgeStyle;rounded=0;orthogonalLoop=1;jettySize=auto;html=1;entryX=0.5;entryY=0;entryDx=0;entryDy=0;strokeColor=#FF3333;" edge="1" parent="1" source="ZQmZOdDf3GveqMF7tPYy-8" target="ZQmZOdDf3GveqMF7tPYy-15">
          <mxGeometry relative="1" as="geometry" />
        </mxCell>
        <mxCell id="ZQmZOdDf3GveqMF7tPYy-8" value="Kiểm tra thông tin" style="rounded=0;whiteSpace=wrap;html=1;" vertex="1" parent="1">
          <mxGeometry x="520" y="260" width="120" height="60" as="geometry" />
        </mxCell>
        <mxCell id="ZQmZOdDf3GveqMF7tPYy-15" value="" style="rhombus;whiteSpace=wrap;html=1;fontColor=#000000;fillColor=#ffffc0;strokeColor=#ff0000;" vertex="1" parent="1">
          <mxGeometry x="540" y="360" width="80" height="40" as="geometry" />
        </mxCell>
        <mxCell id="ZQmZOdDf3GveqMF7tPYy-16" value="yes" style="edgeStyle=orthogonalEdgeStyle;html=1;align=left;verticalAlign=bottom;endArrow=open;endSize=8;strokeColor=#ff0000;rounded=0;" edge="1" parent="1" source="ZQmZOdDf3GveqMF7tPYy-15" target="ZQmZOdDf3GveqMF7tPYy-19">
          <mxGeometry x="-1" relative="1" as="geometry">
            <mxPoint x="720" y="380" as="targetPoint" />
            <mxPoint as="offset" />
          </mxGeometry>
        </mxCell>
        <mxCell id="ZQmZOdDf3GveqMF7tPYy-17" value="no" style="edgeStyle=orthogonalEdgeStyle;html=1;align=left;verticalAlign=top;endArrow=open;endSize=8;strokeColor=#ff0000;rounded=0;entryX=0.5;entryY=1;entryDx=0;entryDy=0;" edge="1" parent="1" source="ZQmZOdDf3GveqMF7tPYy-15" target="ZQmZOdDf3GveqMF7tPYy-5">
          <mxGeometry x="-1" relative="1" as="geometry">
            <mxPoint x="220" y="380" as="targetPoint" />
          </mxGeometry>
        </mxCell>
        <mxCell id="ZQmZOdDf3GveqMF7tPYy-18" style="edgeStyle=orthogonalEdgeStyle;rounded=0;orthogonalLoop=1;jettySize=auto;html=1;entryX=0.5;entryY=0;entryDx=0;entryDy=0;strokeColor=#FF3333;" edge="1" parent="1" source="ZQmZOdDf3GveqMF7tPYy-19" target="ZQmZOdDf3GveqMF7tPYy-25">
          <mxGeometry relative="1" as="geometry" />
        </mxCell>
        <mxCell id="ZQmZOdDf3GveqMF7tPYy-19" value="Hiển thị thông tin" style="rounded=1;whiteSpace=wrap;html=1;arcSize=40;fontColor=#000000;fillColor=#ffffc0;strokeColor=#ff0000;" vertex="1" parent="1">
          <mxGeometry x="660" y="360" width="120" height="40" as="geometry" />
        </mxCell>
        <mxCell id="ZQmZOdDf3GveqMF7tPYy-22" value="&lt;font style=&quot;font-size: 16px;&quot;&gt;Quản trị hệ thống&lt;/font&gt;" style="text;html=1;strokeColor=none;fillColor=none;align=center;verticalAlign=middle;whiteSpace=wrap;rounded=0;" vertex="1" parent="1">
          <mxGeometry x="120" y="130" width="200" height="30" as="geometry" />
        </mxCell>
        <mxCell id="ZQmZOdDf3GveqMF7tPYy-23" value="&lt;font style=&quot;font-size: 16px;&quot;&gt;Hệ thống&lt;/font&gt;" style="text;html=1;strokeColor=none;fillColor=none;align=center;verticalAlign=middle;whiteSpace=wrap;rounded=0;" vertex="1" parent="1">
          <mxGeometry x="620" y="130" width="160" height="30" as="geometry" />
        </mxCell>
        <mxCell id="ZQmZOdDf3GveqMF7tPYy-39" style="rounded=0;orthogonalLoop=1;jettySize=auto;html=1;exitX=0.5;exitY=1;exitDx=0;exitDy=0;strokeColor=#FF3333;entryX=0.5;entryY=0;entryDx=0;entryDy=0;" edge="1" parent="1" source="ZQmZOdDf3GveqMF7tPYy-25" target="ZQmZOdDf3GveqMF7tPYy-34">
          <mxGeometry relative="1" as="geometry" />
        </mxCell>
        <mxCell id="ZQmZOdDf3GveqMF7tPYy-40" style="rounded=0;orthogonalLoop=1;jettySize=auto;html=1;exitX=0.5;exitY=1;exitDx=0;exitDy=0;entryX=0.5;entryY=0;entryDx=0;entryDy=0;strokeColor=#FF3333;" edge="1" parent="1" source="ZQmZOdDf3GveqMF7tPYy-25" target="ZQmZOdDf3GveqMF7tPYy-36">
          <mxGeometry relative="1" as="geometry" />
        </mxCell>
        <mxCell id="ZQmZOdDf3GveqMF7tPYy-41" style="rounded=0;orthogonalLoop=1;jettySize=auto;html=1;entryX=0.5;entryY=0;entryDx=0;entryDy=0;strokeColor=#FF3333;" edge="1" parent="1" target="ZQmZOdDf3GveqMF7tPYy-37">
          <mxGeometry relative="1" as="geometry">
            <mxPoint x="720" y="520" as="sourcePoint" />
          </mxGeometry>
        </mxCell>
        <mxCell id="ZQmZOdDf3GveqMF7tPYy-42" style="rounded=0;orthogonalLoop=1;jettySize=auto;html=1;entryX=0.5;entryY=0;entryDx=0;entryDy=0;strokeColor=#FF3333;" edge="1" parent="1" target="ZQmZOdDf3GveqMF7tPYy-38">
          <mxGeometry relative="1" as="geometry">
            <mxPoint x="720" y="520" as="sourcePoint" />
          </mxGeometry>
        </mxCell>
        <mxCell id="ZQmZOdDf3GveqMF7tPYy-25" value="Yêu cầu chọn chức năng" style="rhombus;whiteSpace=wrap;html=1;fontColor=#000000;fillColor=#ffffc0;strokeColor=#ff0000;" vertex="1" parent="1">
          <mxGeometry x="630" y="440" width="180" height="80" as="geometry" />
        </mxCell>
        <mxCell id="ZQmZOdDf3GveqMF7tPYy-45" style="edgeStyle=orthogonalEdgeStyle;rounded=0;orthogonalLoop=1;jettySize=auto;html=1;entryX=1;entryY=0.5;entryDx=0;entryDy=0;strokeColor=#FF3333;" edge="1" parent="1" source="ZQmZOdDf3GveqMF7tPYy-34" target="ZQmZOdDf3GveqMF7tPYy-43">
          <mxGeometry relative="1" as="geometry" />
        </mxCell>
        <mxCell id="ZQmZOdDf3GveqMF7tPYy-34" value="Thêm mới" style="rounded=1;whiteSpace=wrap;html=1;arcSize=40;fontColor=#000000;fillColor=#ffffc0;strokeColor=#ff0000;" vertex="1" parent="1">
          <mxGeometry x="440" y="560" width="120" height="40" as="geometry" />
        </mxCell>
        <mxCell id="ZQmZOdDf3GveqMF7tPYy-36" value="Sửa thông tin" style="rounded=1;whiteSpace=wrap;html=1;arcSize=40;fontColor=#000000;fillColor=#ffffc0;strokeColor=#ff0000;" vertex="1" parent="1">
          <mxGeometry x="580" y="560" width="120" height="40" as="geometry" />
        </mxCell>
        <mxCell id="ZQmZOdDf3GveqMF7tPYy-37" value="Xoá" style="rounded=1;whiteSpace=wrap;html=1;arcSize=40;fontColor=#000000;fillColor=#ffffc0;strokeColor=#ff0000;" vertex="1" parent="1">
          <mxGeometry x="720" y="560" width="120" height="40" as="geometry" />
        </mxCell>
        <mxCell id="ZQmZOdDf3GveqMF7tPYy-50" style="rounded=0;orthogonalLoop=1;jettySize=auto;html=1;entryX=1;entryY=0.5;entryDx=0;entryDy=0;strokeColor=#FF3333;exitX=0.5;exitY=1;exitDx=0;exitDy=0;" edge="1" parent="1" source="ZQmZOdDf3GveqMF7tPYy-38" target="ZQmZOdDf3GveqMF7tPYy-46">
          <mxGeometry relative="1" as="geometry" />
        </mxCell>
        <mxCell id="ZQmZOdDf3GveqMF7tPYy-38" value="Tìm kiếm/Truy vấn" style="rounded=1;whiteSpace=wrap;html=1;arcSize=40;fontColor=#000000;fillColor=#ffffc0;strokeColor=#ff0000;" vertex="1" parent="1">
          <mxGeometry x="860" y="560" width="120" height="40" as="geometry" />
        </mxCell>
        <mxCell id="ZQmZOdDf3GveqMF7tPYy-43" value="Nhập thông tin" style="rounded=1;whiteSpace=wrap;html=1;arcSize=40;fontColor=#000000;fillColor=#ffffc0;strokeColor=#ff0000;" vertex="1" parent="1">
          <mxGeometry x="80" y="560" width="120" height="40" as="geometry" />
        </mxCell>
        <mxCell id="ZQmZOdDf3GveqMF7tPYy-44" value="" style="edgeStyle=orthogonalEdgeStyle;html=1;verticalAlign=bottom;endArrow=open;endSize=8;strokeColor=#ff0000;rounded=0;entryX=0;entryY=0.5;entryDx=0;entryDy=0;" edge="1" source="ZQmZOdDf3GveqMF7tPYy-43" parent="1" target="v7VbvpF-xB8q6UgnlHlw-7">
          <mxGeometry relative="1" as="geometry">
            <mxPoint x="140" y="660" as="targetPoint" />
            <Array as="points">
              <mxPoint x="140" y="860" />
            </Array>
          </mxGeometry>
        </mxCell>
        <mxCell id="ZQmZOdDf3GveqMF7tPYy-55" style="edgeStyle=orthogonalEdgeStyle;rounded=0;orthogonalLoop=1;jettySize=auto;html=1;entryX=0;entryY=0.5;entryDx=0;entryDy=0;strokeColor=#FF3333;" edge="1" parent="1" source="ZQmZOdDf3GveqMF7tPYy-46" target="ZQmZOdDf3GveqMF7tPYy-53">
          <mxGeometry relative="1" as="geometry">
            <Array as="points">
              <mxPoint x="310" y="700" />
            </Array>
          </mxGeometry>
        </mxCell>
        <mxCell id="ZQmZOdDf3GveqMF7tPYy-46" value="Nhập mã tàu" style="rounded=1;whiteSpace=wrap;html=1;arcSize=40;fontColor=#000000;fillColor=#ffffc0;strokeColor=#ff0000;" vertex="1" parent="1">
          <mxGeometry x="250" y="640" width="120" height="40" as="geometry" />
        </mxCell>
        <mxCell id="ZQmZOdDf3GveqMF7tPYy-51" style="rounded=0;orthogonalLoop=1;jettySize=auto;html=1;strokeColor=#FF3333;entryX=1;entryY=0.5;entryDx=0;entryDy=0;" edge="1" parent="1" target="ZQmZOdDf3GveqMF7tPYy-46">
          <mxGeometry relative="1" as="geometry">
            <mxPoint x="640" y="600" as="sourcePoint" />
            <mxPoint x="310" y="640" as="targetPoint" />
          </mxGeometry>
        </mxCell>
        <mxCell id="ZQmZOdDf3GveqMF7tPYy-52" style="rounded=0;orthogonalLoop=1;jettySize=auto;html=1;entryX=1;entryY=0.5;entryDx=0;entryDy=0;strokeColor=#FF3333;" edge="1" parent="1" target="ZQmZOdDf3GveqMF7tPYy-46">
          <mxGeometry relative="1" as="geometry">
            <mxPoint x="780" y="600" as="sourcePoint" />
            <mxPoint x="340" y="640" as="targetPoint" />
          </mxGeometry>
        </mxCell>
        <mxCell id="ZQmZOdDf3GveqMF7tPYy-53" value="Kiểm tra thông tin" style="rounded=1;whiteSpace=wrap;html=1;arcSize=40;fontColor=#000000;fillColor=#ffffc0;strokeColor=#ff0000;" vertex="1" parent="1">
          <mxGeometry x="660" y="680" width="120" height="40" as="geometry" />
        </mxCell>
        <mxCell id="v7VbvpF-xB8q6UgnlHlw-9" style="edgeStyle=orthogonalEdgeStyle;rounded=0;orthogonalLoop=1;jettySize=auto;html=1;entryX=0.5;entryY=0;entryDx=0;entryDy=0;strokeColor=#FF3333;" edge="1" parent="1" source="v7VbvpF-xB8q6UgnlHlw-1" target="v7VbvpF-xB8q6UgnlHlw-7">
          <mxGeometry relative="1" as="geometry" />
        </mxCell>
        <mxCell id="v7VbvpF-xB8q6UgnlHlw-1" value="" style="rhombus;whiteSpace=wrap;html=1;fontColor=#000000;fillColor=#ffffc0;strokeColor=#ff0000;" vertex="1" parent="1">
          <mxGeometry x="680" y="760" width="80" height="40" as="geometry" />
        </mxCell>
        <mxCell id="v7VbvpF-xB8q6UgnlHlw-2" value="no" style="edgeStyle=orthogonalEdgeStyle;html=1;align=left;verticalAlign=bottom;endArrow=open;endSize=8;strokeColor=#ff0000;rounded=0;entryX=0.25;entryY=1;entryDx=0;entryDy=0;" edge="1" source="v7VbvpF-xB8q6UgnlHlw-1" parent="1" target="ZQmZOdDf3GveqMF7tPYy-46">
          <mxGeometry x="-0.96" relative="1" as="geometry">
            <mxPoint x="560" y="780" as="targetPoint" />
            <Array as="points">
              <mxPoint x="280" y="780" />
            </Array>
            <mxPoint as="offset" />
          </mxGeometry>
        </mxCell>
        <mxCell id="v7VbvpF-xB8q6UgnlHlw-4" value="" style="ellipse;html=1;shape=endState;fillColor=#000000;strokeColor=#ff0000;" vertex="1" parent="1">
          <mxGeometry x="705" y="930" width="30" height="30" as="geometry" />
        </mxCell>
        <mxCell id="v7VbvpF-xB8q6UgnlHlw-11" style="edgeStyle=orthogonalEdgeStyle;rounded=0;orthogonalLoop=1;jettySize=auto;html=1;entryX=0.5;entryY=0;entryDx=0;entryDy=0;strokeColor=#FF3333;" edge="1" parent="1" source="v7VbvpF-xB8q6UgnlHlw-7" target="v7VbvpF-xB8q6UgnlHlw-4">
          <mxGeometry relative="1" as="geometry" />
        </mxCell>
        <mxCell id="v7VbvpF-xB8q6UgnlHlw-7" value="Cập nhật trạng thái" style="rounded=1;whiteSpace=wrap;html=1;arcSize=40;fontColor=#000000;fillColor=#ffffc0;strokeColor=#ff0000;" vertex="1" parent="1">
          <mxGeometry x="660" y="840" width="120" height="40" as="geometry" />
        </mxCell>
        <mxCell id="v7VbvpF-xB8q6UgnlHlw-12" value="yes" style="text;html=1;strokeColor=none;fillColor=none;align=center;verticalAlign=middle;whiteSpace=wrap;rounded=0;" vertex="1" parent="1">
          <mxGeometry x="705" y="790" width="60" height="30" as="geometry" />
        </mxCell>
      </root>
    </mxGraphModel>
  </diagram>
  <diagram name="Biểu đồ hoạt động quản lý lịch tàu" id="chv9Ojnfp_ojdkhqaG1d">
    <mxGraphModel dx="1180" dy="661" grid="1" gridSize="10" guides="1" tooltips="1" connect="1" arrows="1" fold="1" page="1" pageScale="1" pageWidth="827" pageHeight="1169" math="0" shadow="0">
      <root>
        <mxCell id="yiPZsOeXw9gvfE_quYTE-0" />
        <mxCell id="yiPZsOeXw9gvfE_quYTE-1" parent="yiPZsOeXw9gvfE_quYTE-0" />
        <mxCell id="yiPZsOeXw9gvfE_quYTE-7" value="" style="rounded=0;whiteSpace=wrap;html=1;fillColor=none;" vertex="1" parent="yiPZsOeXw9gvfE_quYTE-1">
          <mxGeometry x="50" y="120" width="350" height="880" as="geometry" />
        </mxCell>
        <mxCell id="yiPZsOeXw9gvfE_quYTE-2" value="" style="rounded=0;whiteSpace=wrap;html=1;fillColor=none;" vertex="1" parent="yiPZsOeXw9gvfE_quYTE-1">
          <mxGeometry x="400" y="120" width="600" height="880" as="geometry" />
        </mxCell>
        <mxCell id="yiPZsOeXw9gvfE_quYTE-3" value="" style="ellipse;html=1;shape=startState;fillColor=#000000;strokeColor=#ff0000;" vertex="1" parent="yiPZsOeXw9gvfE_quYTE-1">
          <mxGeometry x="205" y="170" width="30" height="30" as="geometry" />
        </mxCell>
        <mxCell id="yiPZsOeXw9gvfE_quYTE-4" value="" style="edgeStyle=orthogonalEdgeStyle;html=1;verticalAlign=bottom;endArrow=open;endSize=8;strokeColor=#ff0000;rounded=0;" edge="1" parent="yiPZsOeXw9gvfE_quYTE-1" source="yiPZsOeXw9gvfE_quYTE-3" target="yiPZsOeXw9gvfE_quYTE-6">
          <mxGeometry relative="1" as="geometry">
            <mxPoint x="220" y="260" as="targetPoint" />
          </mxGeometry>
        </mxCell>
        <mxCell id="yiPZsOeXw9gvfE_quYTE-5" style="edgeStyle=orthogonalEdgeStyle;rounded=0;orthogonalLoop=1;jettySize=auto;html=1;entryX=0;entryY=0.5;entryDx=0;entryDy=0;strokeColor=#FF3333;" edge="1" parent="yiPZsOeXw9gvfE_quYTE-1" source="yiPZsOeXw9gvfE_quYTE-6" target="yiPZsOeXw9gvfE_quYTE-9">
          <mxGeometry relative="1" as="geometry" />
        </mxCell>
        <mxCell id="yiPZsOeXw9gvfE_quYTE-6" value="Quản lý thông tin&lt;br&gt;lịch tàu" style="rounded=0;whiteSpace=wrap;html=1;" vertex="1" parent="yiPZsOeXw9gvfE_quYTE-1">
          <mxGeometry x="160" y="260" width="120" height="60" as="geometry" />
        </mxCell>
        <mxCell id="yiPZsOeXw9gvfE_quYTE-8" style="edgeStyle=orthogonalEdgeStyle;rounded=0;orthogonalLoop=1;jettySize=auto;html=1;entryX=0.5;entryY=0;entryDx=0;entryDy=0;strokeColor=#FF3333;" edge="1" parent="yiPZsOeXw9gvfE_quYTE-1" source="yiPZsOeXw9gvfE_quYTE-9" target="yiPZsOeXw9gvfE_quYTE-10">
          <mxGeometry relative="1" as="geometry" />
        </mxCell>
        <mxCell id="yiPZsOeXw9gvfE_quYTE-9" value="Kiểm tra thông tin" style="rounded=0;whiteSpace=wrap;html=1;" vertex="1" parent="yiPZsOeXw9gvfE_quYTE-1">
          <mxGeometry x="520" y="260" width="120" height="60" as="geometry" />
        </mxCell>
        <mxCell id="yiPZsOeXw9gvfE_quYTE-10" value="" style="rhombus;whiteSpace=wrap;html=1;fontColor=#000000;fillColor=#ffffc0;strokeColor=#ff0000;" vertex="1" parent="yiPZsOeXw9gvfE_quYTE-1">
          <mxGeometry x="540" y="360" width="80" height="40" as="geometry" />
        </mxCell>
        <mxCell id="yiPZsOeXw9gvfE_quYTE-11" value="yes" style="edgeStyle=orthogonalEdgeStyle;html=1;align=left;verticalAlign=bottom;endArrow=open;endSize=8;strokeColor=#ff0000;rounded=0;" edge="1" parent="yiPZsOeXw9gvfE_quYTE-1" source="yiPZsOeXw9gvfE_quYTE-10" target="yiPZsOeXw9gvfE_quYTE-14">
          <mxGeometry x="-1" relative="1" as="geometry">
            <mxPoint x="720" y="380" as="targetPoint" />
            <mxPoint as="offset" />
          </mxGeometry>
        </mxCell>
        <mxCell id="yiPZsOeXw9gvfE_quYTE-12" value="no" style="edgeStyle=orthogonalEdgeStyle;html=1;align=left;verticalAlign=top;endArrow=open;endSize=8;strokeColor=#ff0000;rounded=0;entryX=0.5;entryY=1;entryDx=0;entryDy=0;" edge="1" parent="yiPZsOeXw9gvfE_quYTE-1" source="yiPZsOeXw9gvfE_quYTE-10" target="yiPZsOeXw9gvfE_quYTE-6">
          <mxGeometry x="-1" relative="1" as="geometry">
            <mxPoint x="220" y="380" as="targetPoint" />
          </mxGeometry>
        </mxCell>
        <mxCell id="yiPZsOeXw9gvfE_quYTE-13" style="edgeStyle=orthogonalEdgeStyle;rounded=0;orthogonalLoop=1;jettySize=auto;html=1;entryX=0.5;entryY=0;entryDx=0;entryDy=0;strokeColor=#FF3333;" edge="1" parent="yiPZsOeXw9gvfE_quYTE-1" source="yiPZsOeXw9gvfE_quYTE-14" target="yiPZsOeXw9gvfE_quYTE-21">
          <mxGeometry relative="1" as="geometry" />
        </mxCell>
        <mxCell id="yiPZsOeXw9gvfE_quYTE-14" value="Hiển thị thông tin" style="rounded=1;whiteSpace=wrap;html=1;arcSize=40;fontColor=#000000;fillColor=#ffffc0;strokeColor=#ff0000;" vertex="1" parent="yiPZsOeXw9gvfE_quYTE-1">
          <mxGeometry x="660" y="360" width="120" height="40" as="geometry" />
        </mxCell>
        <mxCell id="yiPZsOeXw9gvfE_quYTE-15" value="&lt;font style=&quot;font-size: 16px;&quot;&gt;Quản trị hệ thống&lt;/font&gt;" style="text;html=1;strokeColor=none;fillColor=none;align=center;verticalAlign=middle;whiteSpace=wrap;rounded=0;" vertex="1" parent="yiPZsOeXw9gvfE_quYTE-1">
          <mxGeometry x="120" y="130" width="200" height="30" as="geometry" />
        </mxCell>
        <mxCell id="yiPZsOeXw9gvfE_quYTE-16" value="&lt;font style=&quot;font-size: 16px;&quot;&gt;Hệ thống&lt;/font&gt;" style="text;html=1;strokeColor=none;fillColor=none;align=center;verticalAlign=middle;whiteSpace=wrap;rounded=0;" vertex="1" parent="yiPZsOeXw9gvfE_quYTE-1">
          <mxGeometry x="620" y="130" width="160" height="30" as="geometry" />
        </mxCell>
        <mxCell id="yiPZsOeXw9gvfE_quYTE-17" style="rounded=0;orthogonalLoop=1;jettySize=auto;html=1;exitX=0.5;exitY=1;exitDx=0;exitDy=0;strokeColor=#FF3333;entryX=0.5;entryY=0;entryDx=0;entryDy=0;" edge="1" parent="yiPZsOeXw9gvfE_quYTE-1" source="yiPZsOeXw9gvfE_quYTE-21" target="yiPZsOeXw9gvfE_quYTE-23">
          <mxGeometry relative="1" as="geometry" />
        </mxCell>
        <mxCell id="yiPZsOeXw9gvfE_quYTE-18" style="rounded=0;orthogonalLoop=1;jettySize=auto;html=1;exitX=0.5;exitY=1;exitDx=0;exitDy=0;entryX=0.5;entryY=0;entryDx=0;entryDy=0;strokeColor=#FF3333;" edge="1" parent="yiPZsOeXw9gvfE_quYTE-1" source="yiPZsOeXw9gvfE_quYTE-21" target="yiPZsOeXw9gvfE_quYTE-24">
          <mxGeometry relative="1" as="geometry" />
        </mxCell>
        <mxCell id="yiPZsOeXw9gvfE_quYTE-19" style="rounded=0;orthogonalLoop=1;jettySize=auto;html=1;entryX=0.5;entryY=0;entryDx=0;entryDy=0;strokeColor=#FF3333;" edge="1" parent="yiPZsOeXw9gvfE_quYTE-1" target="yiPZsOeXw9gvfE_quYTE-25">
          <mxGeometry relative="1" as="geometry">
            <mxPoint x="720" y="520" as="sourcePoint" />
          </mxGeometry>
        </mxCell>
        <mxCell id="yiPZsOeXw9gvfE_quYTE-20" style="rounded=0;orthogonalLoop=1;jettySize=auto;html=1;entryX=0.5;entryY=0;entryDx=0;entryDy=0;strokeColor=#FF3333;" edge="1" parent="yiPZsOeXw9gvfE_quYTE-1" target="yiPZsOeXw9gvfE_quYTE-27">
          <mxGeometry relative="1" as="geometry">
            <mxPoint x="720" y="520" as="sourcePoint" />
          </mxGeometry>
        </mxCell>
        <mxCell id="yiPZsOeXw9gvfE_quYTE-21" value="Yêu cầu chọn chức năng" style="rhombus;whiteSpace=wrap;html=1;fontColor=#000000;fillColor=#ffffc0;strokeColor=#ff0000;" vertex="1" parent="yiPZsOeXw9gvfE_quYTE-1">
          <mxGeometry x="630" y="440" width="180" height="80" as="geometry" />
        </mxCell>
        <mxCell id="yiPZsOeXw9gvfE_quYTE-22" style="edgeStyle=orthogonalEdgeStyle;rounded=0;orthogonalLoop=1;jettySize=auto;html=1;entryX=1;entryY=0.5;entryDx=0;entryDy=0;strokeColor=#FF3333;" edge="1" parent="yiPZsOeXw9gvfE_quYTE-1" source="yiPZsOeXw9gvfE_quYTE-23" target="yiPZsOeXw9gvfE_quYTE-28">
          <mxGeometry relative="1" as="geometry" />
        </mxCell>
        <mxCell id="yiPZsOeXw9gvfE_quYTE-23" value="Thêm mới" style="rounded=1;whiteSpace=wrap;html=1;arcSize=40;fontColor=#000000;fillColor=#ffffc0;strokeColor=#ff0000;" vertex="1" parent="yiPZsOeXw9gvfE_quYTE-1">
          <mxGeometry x="440" y="560" width="120" height="40" as="geometry" />
        </mxCell>
        <mxCell id="yiPZsOeXw9gvfE_quYTE-24" value="Sửa thông tin" style="rounded=1;whiteSpace=wrap;html=1;arcSize=40;fontColor=#000000;fillColor=#ffffc0;strokeColor=#ff0000;" vertex="1" parent="yiPZsOeXw9gvfE_quYTE-1">
          <mxGeometry x="580" y="560" width="120" height="40" as="geometry" />
        </mxCell>
        <mxCell id="yiPZsOeXw9gvfE_quYTE-25" value="Xoá" style="rounded=1;whiteSpace=wrap;html=1;arcSize=40;fontColor=#000000;fillColor=#ffffc0;strokeColor=#ff0000;" vertex="1" parent="yiPZsOeXw9gvfE_quYTE-1">
          <mxGeometry x="720" y="560" width="120" height="40" as="geometry" />
        </mxCell>
        <mxCell id="yiPZsOeXw9gvfE_quYTE-26" style="rounded=0;orthogonalLoop=1;jettySize=auto;html=1;entryX=1;entryY=0.5;entryDx=0;entryDy=0;strokeColor=#FF3333;exitX=0.5;exitY=1;exitDx=0;exitDy=0;" edge="1" parent="yiPZsOeXw9gvfE_quYTE-1" source="yiPZsOeXw9gvfE_quYTE-27" target="yiPZsOeXw9gvfE_quYTE-31">
          <mxGeometry relative="1" as="geometry" />
        </mxCell>
        <mxCell id="yiPZsOeXw9gvfE_quYTE-27" value="Tìm kiếm/Truy vấn" style="rounded=1;whiteSpace=wrap;html=1;arcSize=40;fontColor=#000000;fillColor=#ffffc0;strokeColor=#ff0000;" vertex="1" parent="yiPZsOeXw9gvfE_quYTE-1">
          <mxGeometry x="860" y="560" width="120" height="40" as="geometry" />
        </mxCell>
        <mxCell id="yiPZsOeXw9gvfE_quYTE-28" value="Nhập thông tin" style="rounded=1;whiteSpace=wrap;html=1;arcSize=40;fontColor=#000000;fillColor=#ffffc0;strokeColor=#ff0000;" vertex="1" parent="yiPZsOeXw9gvfE_quYTE-1">
          <mxGeometry x="80" y="560" width="120" height="40" as="geometry" />
        </mxCell>
        <mxCell id="yiPZsOeXw9gvfE_quYTE-29" value="" style="edgeStyle=orthogonalEdgeStyle;html=1;verticalAlign=bottom;endArrow=open;endSize=8;strokeColor=#ff0000;rounded=0;entryX=0;entryY=0.5;entryDx=0;entryDy=0;" edge="1" parent="yiPZsOeXw9gvfE_quYTE-1" source="yiPZsOeXw9gvfE_quYTE-28" target="yiPZsOeXw9gvfE_quYTE-40">
          <mxGeometry relative="1" as="geometry">
            <mxPoint x="140" y="660" as="targetPoint" />
            <Array as="points">
              <mxPoint x="140" y="860" />
            </Array>
          </mxGeometry>
        </mxCell>
        <mxCell id="yiPZsOeXw9gvfE_quYTE-30" style="edgeStyle=orthogonalEdgeStyle;rounded=0;orthogonalLoop=1;jettySize=auto;html=1;entryX=0;entryY=0.5;entryDx=0;entryDy=0;strokeColor=#FF3333;" edge="1" parent="yiPZsOeXw9gvfE_quYTE-1" source="yiPZsOeXw9gvfE_quYTE-31" target="yiPZsOeXw9gvfE_quYTE-34">
          <mxGeometry relative="1" as="geometry">
            <Array as="points">
              <mxPoint x="310" y="700" />
            </Array>
          </mxGeometry>
        </mxCell>
        <mxCell id="yiPZsOeXw9gvfE_quYTE-31" value="Nhập mã lịch tàu" style="rounded=1;whiteSpace=wrap;html=1;arcSize=40;fontColor=#000000;fillColor=#ffffc0;strokeColor=#ff0000;" vertex="1" parent="yiPZsOeXw9gvfE_quYTE-1">
          <mxGeometry x="250" y="640" width="120" height="40" as="geometry" />
        </mxCell>
        <mxCell id="yiPZsOeXw9gvfE_quYTE-32" style="rounded=0;orthogonalLoop=1;jettySize=auto;html=1;strokeColor=#FF3333;entryX=1;entryY=0.5;entryDx=0;entryDy=0;" edge="1" parent="yiPZsOeXw9gvfE_quYTE-1" target="yiPZsOeXw9gvfE_quYTE-31">
          <mxGeometry relative="1" as="geometry">
            <mxPoint x="640" y="600" as="sourcePoint" />
            <mxPoint x="310" y="640" as="targetPoint" />
          </mxGeometry>
        </mxCell>
        <mxCell id="yiPZsOeXw9gvfE_quYTE-33" style="rounded=0;orthogonalLoop=1;jettySize=auto;html=1;entryX=1;entryY=0.5;entryDx=0;entryDy=0;strokeColor=#FF3333;" edge="1" parent="yiPZsOeXw9gvfE_quYTE-1" target="yiPZsOeXw9gvfE_quYTE-31">
          <mxGeometry relative="1" as="geometry">
            <mxPoint x="780" y="600" as="sourcePoint" />
            <mxPoint x="340" y="640" as="targetPoint" />
          </mxGeometry>
        </mxCell>
        <mxCell id="yiPZsOeXw9gvfE_quYTE-34" value="Kiểm tra thông tin" style="rounded=1;whiteSpace=wrap;html=1;arcSize=40;fontColor=#000000;fillColor=#ffffc0;strokeColor=#ff0000;" vertex="1" parent="yiPZsOeXw9gvfE_quYTE-1">
          <mxGeometry x="660" y="680" width="120" height="40" as="geometry" />
        </mxCell>
        <mxCell id="yiPZsOeXw9gvfE_quYTE-35" style="edgeStyle=orthogonalEdgeStyle;rounded=0;orthogonalLoop=1;jettySize=auto;html=1;entryX=0.5;entryY=0;entryDx=0;entryDy=0;strokeColor=#FF3333;" edge="1" parent="yiPZsOeXw9gvfE_quYTE-1" source="yiPZsOeXw9gvfE_quYTE-36" target="yiPZsOeXw9gvfE_quYTE-40">
          <mxGeometry relative="1" as="geometry" />
        </mxCell>
        <mxCell id="yiPZsOeXw9gvfE_quYTE-36" value="" style="rhombus;whiteSpace=wrap;html=1;fontColor=#000000;fillColor=#ffffc0;strokeColor=#ff0000;" vertex="1" parent="yiPZsOeXw9gvfE_quYTE-1">
          <mxGeometry x="680" y="760" width="80" height="40" as="geometry" />
        </mxCell>
        <mxCell id="yiPZsOeXw9gvfE_quYTE-37" value="no" style="edgeStyle=orthogonalEdgeStyle;html=1;align=left;verticalAlign=bottom;endArrow=open;endSize=8;strokeColor=#ff0000;rounded=0;entryX=0.25;entryY=1;entryDx=0;entryDy=0;" edge="1" parent="yiPZsOeXw9gvfE_quYTE-1" source="yiPZsOeXw9gvfE_quYTE-36" target="yiPZsOeXw9gvfE_quYTE-31">
          <mxGeometry x="-0.96" relative="1" as="geometry">
            <mxPoint x="560" y="780" as="targetPoint" />
            <Array as="points">
              <mxPoint x="280" y="780" />
            </Array>
            <mxPoint as="offset" />
          </mxGeometry>
        </mxCell>
        <mxCell id="yiPZsOeXw9gvfE_quYTE-38" value="" style="ellipse;html=1;shape=endState;fillColor=#000000;strokeColor=#ff0000;" vertex="1" parent="yiPZsOeXw9gvfE_quYTE-1">
          <mxGeometry x="705" y="930" width="30" height="30" as="geometry" />
        </mxCell>
        <mxCell id="yiPZsOeXw9gvfE_quYTE-39" style="edgeStyle=orthogonalEdgeStyle;rounded=0;orthogonalLoop=1;jettySize=auto;html=1;entryX=0.5;entryY=0;entryDx=0;entryDy=0;strokeColor=#FF3333;" edge="1" parent="yiPZsOeXw9gvfE_quYTE-1" source="yiPZsOeXw9gvfE_quYTE-40" target="yiPZsOeXw9gvfE_quYTE-38">
          <mxGeometry relative="1" as="geometry" />
        </mxCell>
        <mxCell id="yiPZsOeXw9gvfE_quYTE-40" value="Cập nhật trạng thái" style="rounded=1;whiteSpace=wrap;html=1;arcSize=40;fontColor=#000000;fillColor=#ffffc0;strokeColor=#ff0000;" vertex="1" parent="yiPZsOeXw9gvfE_quYTE-1">
          <mxGeometry x="660" y="840" width="120" height="40" as="geometry" />
        </mxCell>
        <mxCell id="yiPZsOeXw9gvfE_quYTE-41" value="yes" style="text;html=1;strokeColor=none;fillColor=none;align=center;verticalAlign=middle;whiteSpace=wrap;rounded=0;" vertex="1" parent="yiPZsOeXw9gvfE_quYTE-1">
          <mxGeometry x="705" y="790" width="60" height="30" as="geometry" />
        </mxCell>
      </root>
    </mxGraphModel>
  </diagram>
  <diagram name="Biểu đồ hoạt động quản lý người dùng" id="DI_etVx0dkOwJUtfWwFO">
    <mxGraphModel dx="1416" dy="793" grid="1" gridSize="10" guides="1" tooltips="1" connect="1" arrows="1" fold="1" page="1" pageScale="1" pageWidth="827" pageHeight="1169" math="0" shadow="0">
      <root>
        <mxCell id="MgRHkxXf5tO4-Bg70ejf-0" />
        <mxCell id="MgRHkxXf5tO4-Bg70ejf-1" parent="MgRHkxXf5tO4-Bg70ejf-0" />
        <mxCell id="MgRHkxXf5tO4-Bg70ejf-2" value="" style="rounded=0;whiteSpace=wrap;html=1;fillColor=none;" vertex="1" parent="MgRHkxXf5tO4-Bg70ejf-1">
          <mxGeometry x="50" y="120" width="350" height="880" as="geometry" />
        </mxCell>
        <mxCell id="MgRHkxXf5tO4-Bg70ejf-3" value="" style="rounded=0;whiteSpace=wrap;html=1;fillColor=none;" vertex="1" parent="MgRHkxXf5tO4-Bg70ejf-1">
          <mxGeometry x="400" y="120" width="600" height="880" as="geometry" />
        </mxCell>
        <mxCell id="MgRHkxXf5tO4-Bg70ejf-4" value="" style="ellipse;html=1;shape=startState;fillColor=#000000;strokeColor=#ff0000;" vertex="1" parent="MgRHkxXf5tO4-Bg70ejf-1">
          <mxGeometry x="205" y="170" width="30" height="30" as="geometry" />
        </mxCell>
        <mxCell id="MgRHkxXf5tO4-Bg70ejf-5" value="" style="edgeStyle=orthogonalEdgeStyle;html=1;verticalAlign=bottom;endArrow=open;endSize=8;strokeColor=#ff0000;rounded=0;" edge="1" parent="MgRHkxXf5tO4-Bg70ejf-1" source="MgRHkxXf5tO4-Bg70ejf-4" target="MgRHkxXf5tO4-Bg70ejf-7">
          <mxGeometry relative="1" as="geometry">
            <mxPoint x="220" y="260" as="targetPoint" />
          </mxGeometry>
        </mxCell>
        <mxCell id="MgRHkxXf5tO4-Bg70ejf-6" style="edgeStyle=orthogonalEdgeStyle;rounded=0;orthogonalLoop=1;jettySize=auto;html=1;entryX=0;entryY=0.5;entryDx=0;entryDy=0;strokeColor=#FF3333;" edge="1" parent="MgRHkxXf5tO4-Bg70ejf-1" source="MgRHkxXf5tO4-Bg70ejf-7" target="MgRHkxXf5tO4-Bg70ejf-9">
          <mxGeometry relative="1" as="geometry" />
        </mxCell>
        <mxCell id="MgRHkxXf5tO4-Bg70ejf-7" value="Quản lý thông tin&lt;br&gt;người dùng" style="rounded=0;whiteSpace=wrap;html=1;" vertex="1" parent="MgRHkxXf5tO4-Bg70ejf-1">
          <mxGeometry x="160" y="260" width="120" height="60" as="geometry" />
        </mxCell>
        <mxCell id="MgRHkxXf5tO4-Bg70ejf-8" style="edgeStyle=orthogonalEdgeStyle;rounded=0;orthogonalLoop=1;jettySize=auto;html=1;entryX=0.5;entryY=0;entryDx=0;entryDy=0;strokeColor=#FF3333;" edge="1" parent="MgRHkxXf5tO4-Bg70ejf-1" source="MgRHkxXf5tO4-Bg70ejf-9" target="MgRHkxXf5tO4-Bg70ejf-10">
          <mxGeometry relative="1" as="geometry" />
        </mxCell>
        <mxCell id="MgRHkxXf5tO4-Bg70ejf-9" value="Kiểm tra thông tin" style="rounded=0;whiteSpace=wrap;html=1;" vertex="1" parent="MgRHkxXf5tO4-Bg70ejf-1">
          <mxGeometry x="520" y="260" width="120" height="60" as="geometry" />
        </mxCell>
        <mxCell id="MgRHkxXf5tO4-Bg70ejf-10" value="" style="rhombus;whiteSpace=wrap;html=1;fontColor=#000000;fillColor=#ffffc0;strokeColor=#ff0000;" vertex="1" parent="MgRHkxXf5tO4-Bg70ejf-1">
          <mxGeometry x="540" y="360" width="80" height="40" as="geometry" />
        </mxCell>
        <mxCell id="MgRHkxXf5tO4-Bg70ejf-11" value="yes" style="edgeStyle=orthogonalEdgeStyle;html=1;align=left;verticalAlign=bottom;endArrow=open;endSize=8;strokeColor=#ff0000;rounded=0;" edge="1" parent="MgRHkxXf5tO4-Bg70ejf-1" source="MgRHkxXf5tO4-Bg70ejf-10" target="MgRHkxXf5tO4-Bg70ejf-14">
          <mxGeometry x="-1" relative="1" as="geometry">
            <mxPoint x="720" y="380" as="targetPoint" />
            <mxPoint as="offset" />
          </mxGeometry>
        </mxCell>
        <mxCell id="MgRHkxXf5tO4-Bg70ejf-12" value="no" style="edgeStyle=orthogonalEdgeStyle;html=1;align=left;verticalAlign=top;endArrow=open;endSize=8;strokeColor=#ff0000;rounded=0;entryX=0.5;entryY=1;entryDx=0;entryDy=0;" edge="1" parent="MgRHkxXf5tO4-Bg70ejf-1" source="MgRHkxXf5tO4-Bg70ejf-10" target="MgRHkxXf5tO4-Bg70ejf-7">
          <mxGeometry x="-1" relative="1" as="geometry">
            <mxPoint x="220" y="380" as="targetPoint" />
          </mxGeometry>
        </mxCell>
        <mxCell id="MgRHkxXf5tO4-Bg70ejf-13" style="edgeStyle=orthogonalEdgeStyle;rounded=0;orthogonalLoop=1;jettySize=auto;html=1;entryX=0.5;entryY=0;entryDx=0;entryDy=0;strokeColor=#FF3333;" edge="1" parent="MgRHkxXf5tO4-Bg70ejf-1" source="MgRHkxXf5tO4-Bg70ejf-14" target="MgRHkxXf5tO4-Bg70ejf-21">
          <mxGeometry relative="1" as="geometry" />
        </mxCell>
        <mxCell id="MgRHkxXf5tO4-Bg70ejf-14" value="Hiển thị thông tin" style="rounded=1;whiteSpace=wrap;html=1;arcSize=40;fontColor=#000000;fillColor=#ffffc0;strokeColor=#ff0000;" vertex="1" parent="MgRHkxXf5tO4-Bg70ejf-1">
          <mxGeometry x="660" y="360" width="120" height="40" as="geometry" />
        </mxCell>
        <mxCell id="MgRHkxXf5tO4-Bg70ejf-15" value="&lt;font style=&quot;font-size: 16px;&quot;&gt;Quản trị hệ thống&lt;/font&gt;" style="text;html=1;strokeColor=none;fillColor=none;align=center;verticalAlign=middle;whiteSpace=wrap;rounded=0;" vertex="1" parent="MgRHkxXf5tO4-Bg70ejf-1">
          <mxGeometry x="120" y="130" width="200" height="30" as="geometry" />
        </mxCell>
        <mxCell id="MgRHkxXf5tO4-Bg70ejf-16" value="&lt;font style=&quot;font-size: 16px;&quot;&gt;Hệ thống&lt;/font&gt;" style="text;html=1;strokeColor=none;fillColor=none;align=center;verticalAlign=middle;whiteSpace=wrap;rounded=0;" vertex="1" parent="MgRHkxXf5tO4-Bg70ejf-1">
          <mxGeometry x="620" y="130" width="160" height="30" as="geometry" />
        </mxCell>
        <mxCell id="MgRHkxXf5tO4-Bg70ejf-17" style="rounded=0;orthogonalLoop=1;jettySize=auto;html=1;exitX=0.5;exitY=1;exitDx=0;exitDy=0;strokeColor=#FF3333;entryX=0.5;entryY=0;entryDx=0;entryDy=0;" edge="1" parent="MgRHkxXf5tO4-Bg70ejf-1" source="MgRHkxXf5tO4-Bg70ejf-21" target="MgRHkxXf5tO4-Bg70ejf-23">
          <mxGeometry relative="1" as="geometry" />
        </mxCell>
        <mxCell id="MgRHkxXf5tO4-Bg70ejf-18" style="rounded=0;orthogonalLoop=1;jettySize=auto;html=1;exitX=0.5;exitY=1;exitDx=0;exitDy=0;entryX=0.5;entryY=0;entryDx=0;entryDy=0;strokeColor=#FF3333;" edge="1" parent="MgRHkxXf5tO4-Bg70ejf-1" source="MgRHkxXf5tO4-Bg70ejf-21" target="MgRHkxXf5tO4-Bg70ejf-24">
          <mxGeometry relative="1" as="geometry" />
        </mxCell>
        <mxCell id="MgRHkxXf5tO4-Bg70ejf-19" style="rounded=0;orthogonalLoop=1;jettySize=auto;html=1;entryX=0.5;entryY=0;entryDx=0;entryDy=0;strokeColor=#FF3333;" edge="1" parent="MgRHkxXf5tO4-Bg70ejf-1" target="MgRHkxXf5tO4-Bg70ejf-25">
          <mxGeometry relative="1" as="geometry">
            <mxPoint x="720" y="520" as="sourcePoint" />
          </mxGeometry>
        </mxCell>
        <mxCell id="MgRHkxXf5tO4-Bg70ejf-20" style="rounded=0;orthogonalLoop=1;jettySize=auto;html=1;entryX=0.5;entryY=0;entryDx=0;entryDy=0;strokeColor=#FF3333;" edge="1" parent="MgRHkxXf5tO4-Bg70ejf-1" target="MgRHkxXf5tO4-Bg70ejf-27">
          <mxGeometry relative="1" as="geometry">
            <mxPoint x="720" y="520" as="sourcePoint" />
          </mxGeometry>
        </mxCell>
        <mxCell id="MgRHkxXf5tO4-Bg70ejf-21" value="Yêu cầu chọn chức năng" style="rhombus;whiteSpace=wrap;html=1;fontColor=#000000;fillColor=#ffffc0;strokeColor=#ff0000;" vertex="1" parent="MgRHkxXf5tO4-Bg70ejf-1">
          <mxGeometry x="630" y="440" width="180" height="80" as="geometry" />
        </mxCell>
        <mxCell id="MgRHkxXf5tO4-Bg70ejf-22" style="edgeStyle=orthogonalEdgeStyle;rounded=0;orthogonalLoop=1;jettySize=auto;html=1;entryX=1;entryY=0.5;entryDx=0;entryDy=0;strokeColor=#FF3333;" edge="1" parent="MgRHkxXf5tO4-Bg70ejf-1" source="MgRHkxXf5tO4-Bg70ejf-23" target="MgRHkxXf5tO4-Bg70ejf-28">
          <mxGeometry relative="1" as="geometry" />
        </mxCell>
        <mxCell id="MgRHkxXf5tO4-Bg70ejf-23" value="Thêm mới" style="rounded=1;whiteSpace=wrap;html=1;arcSize=40;fontColor=#000000;fillColor=#ffffc0;strokeColor=#ff0000;" vertex="1" parent="MgRHkxXf5tO4-Bg70ejf-1">
          <mxGeometry x="440" y="560" width="120" height="40" as="geometry" />
        </mxCell>
        <mxCell id="MgRHkxXf5tO4-Bg70ejf-24" value="Sửa thông tin" style="rounded=1;whiteSpace=wrap;html=1;arcSize=40;fontColor=#000000;fillColor=#ffffc0;strokeColor=#ff0000;" vertex="1" parent="MgRHkxXf5tO4-Bg70ejf-1">
          <mxGeometry x="580" y="560" width="120" height="40" as="geometry" />
        </mxCell>
        <mxCell id="MgRHkxXf5tO4-Bg70ejf-25" value="Xoá" style="rounded=1;whiteSpace=wrap;html=1;arcSize=40;fontColor=#000000;fillColor=#ffffc0;strokeColor=#ff0000;" vertex="1" parent="MgRHkxXf5tO4-Bg70ejf-1">
          <mxGeometry x="720" y="560" width="120" height="40" as="geometry" />
        </mxCell>
        <mxCell id="MgRHkxXf5tO4-Bg70ejf-26" style="rounded=0;orthogonalLoop=1;jettySize=auto;html=1;entryX=1;entryY=0.5;entryDx=0;entryDy=0;strokeColor=#FF3333;exitX=0.5;exitY=1;exitDx=0;exitDy=0;" edge="1" parent="MgRHkxXf5tO4-Bg70ejf-1" source="MgRHkxXf5tO4-Bg70ejf-27" target="MgRHkxXf5tO4-Bg70ejf-31">
          <mxGeometry relative="1" as="geometry" />
        </mxCell>
        <mxCell id="MgRHkxXf5tO4-Bg70ejf-27" value="Tìm kiếm/Truy vấn" style="rounded=1;whiteSpace=wrap;html=1;arcSize=40;fontColor=#000000;fillColor=#ffffc0;strokeColor=#ff0000;" vertex="1" parent="MgRHkxXf5tO4-Bg70ejf-1">
          <mxGeometry x="860" y="560" width="120" height="40" as="geometry" />
        </mxCell>
        <mxCell id="MgRHkxXf5tO4-Bg70ejf-28" value="Nhập thông tin" style="rounded=1;whiteSpace=wrap;html=1;arcSize=40;fontColor=#000000;fillColor=#ffffc0;strokeColor=#ff0000;" vertex="1" parent="MgRHkxXf5tO4-Bg70ejf-1">
          <mxGeometry x="80" y="560" width="120" height="40" as="geometry" />
        </mxCell>
        <mxCell id="MgRHkxXf5tO4-Bg70ejf-29" value="" style="edgeStyle=orthogonalEdgeStyle;html=1;verticalAlign=bottom;endArrow=open;endSize=8;strokeColor=#ff0000;rounded=0;entryX=0;entryY=0.5;entryDx=0;entryDy=0;" edge="1" parent="MgRHkxXf5tO4-Bg70ejf-1" source="MgRHkxXf5tO4-Bg70ejf-28" target="MgRHkxXf5tO4-Bg70ejf-40">
          <mxGeometry relative="1" as="geometry">
            <mxPoint x="140" y="660" as="targetPoint" />
            <Array as="points">
              <mxPoint x="140" y="860" />
            </Array>
          </mxGeometry>
        </mxCell>
        <mxCell id="MgRHkxXf5tO4-Bg70ejf-30" style="edgeStyle=orthogonalEdgeStyle;rounded=0;orthogonalLoop=1;jettySize=auto;html=1;entryX=0;entryY=0.5;entryDx=0;entryDy=0;strokeColor=#FF3333;" edge="1" parent="MgRHkxXf5tO4-Bg70ejf-1" source="MgRHkxXf5tO4-Bg70ejf-31" target="MgRHkxXf5tO4-Bg70ejf-34">
          <mxGeometry relative="1" as="geometry">
            <Array as="points">
              <mxPoint x="310" y="700" />
            </Array>
          </mxGeometry>
        </mxCell>
        <mxCell id="MgRHkxXf5tO4-Bg70ejf-31" value="Nhập mã người dùng" style="rounded=1;whiteSpace=wrap;html=1;arcSize=40;fontColor=#000000;fillColor=#ffffc0;strokeColor=#ff0000;" vertex="1" parent="MgRHkxXf5tO4-Bg70ejf-1">
          <mxGeometry x="250" y="640" width="120" height="40" as="geometry" />
        </mxCell>
        <mxCell id="MgRHkxXf5tO4-Bg70ejf-32" style="rounded=0;orthogonalLoop=1;jettySize=auto;html=1;strokeColor=#FF3333;entryX=1;entryY=0.5;entryDx=0;entryDy=0;" edge="1" parent="MgRHkxXf5tO4-Bg70ejf-1" target="MgRHkxXf5tO4-Bg70ejf-31">
          <mxGeometry relative="1" as="geometry">
            <mxPoint x="640" y="600" as="sourcePoint" />
            <mxPoint x="310" y="640" as="targetPoint" />
          </mxGeometry>
        </mxCell>
        <mxCell id="MgRHkxXf5tO4-Bg70ejf-33" style="rounded=0;orthogonalLoop=1;jettySize=auto;html=1;entryX=1;entryY=0.5;entryDx=0;entryDy=0;strokeColor=#FF3333;" edge="1" parent="MgRHkxXf5tO4-Bg70ejf-1" target="MgRHkxXf5tO4-Bg70ejf-31">
          <mxGeometry relative="1" as="geometry">
            <mxPoint x="780" y="600" as="sourcePoint" />
            <mxPoint x="340" y="640" as="targetPoint" />
          </mxGeometry>
        </mxCell>
        <mxCell id="MgRHkxXf5tO4-Bg70ejf-34" value="Kiểm tra thông tin" style="rounded=1;whiteSpace=wrap;html=1;arcSize=40;fontColor=#000000;fillColor=#ffffc0;strokeColor=#ff0000;" vertex="1" parent="MgRHkxXf5tO4-Bg70ejf-1">
          <mxGeometry x="660" y="680" width="120" height="40" as="geometry" />
        </mxCell>
        <mxCell id="MgRHkxXf5tO4-Bg70ejf-35" style="edgeStyle=orthogonalEdgeStyle;rounded=0;orthogonalLoop=1;jettySize=auto;html=1;entryX=0.5;entryY=0;entryDx=0;entryDy=0;strokeColor=#FF3333;" edge="1" parent="MgRHkxXf5tO4-Bg70ejf-1" source="MgRHkxXf5tO4-Bg70ejf-36" target="MgRHkxXf5tO4-Bg70ejf-40">
          <mxGeometry relative="1" as="geometry" />
        </mxCell>
        <mxCell id="MgRHkxXf5tO4-Bg70ejf-36" value="" style="rhombus;whiteSpace=wrap;html=1;fontColor=#000000;fillColor=#ffffc0;strokeColor=#ff0000;" vertex="1" parent="MgRHkxXf5tO4-Bg70ejf-1">
          <mxGeometry x="680" y="760" width="80" height="40" as="geometry" />
        </mxCell>
        <mxCell id="MgRHkxXf5tO4-Bg70ejf-37" value="no" style="edgeStyle=orthogonalEdgeStyle;html=1;align=left;verticalAlign=bottom;endArrow=open;endSize=8;strokeColor=#ff0000;rounded=0;entryX=0.25;entryY=1;entryDx=0;entryDy=0;" edge="1" parent="MgRHkxXf5tO4-Bg70ejf-1" source="MgRHkxXf5tO4-Bg70ejf-36" target="MgRHkxXf5tO4-Bg70ejf-31">
          <mxGeometry x="-0.96" relative="1" as="geometry">
            <mxPoint x="560" y="780" as="targetPoint" />
            <Array as="points">
              <mxPoint x="280" y="780" />
            </Array>
            <mxPoint as="offset" />
          </mxGeometry>
        </mxCell>
        <mxCell id="MgRHkxXf5tO4-Bg70ejf-38" value="" style="ellipse;html=1;shape=endState;fillColor=#000000;strokeColor=#ff0000;" vertex="1" parent="MgRHkxXf5tO4-Bg70ejf-1">
          <mxGeometry x="705" y="930" width="30" height="30" as="geometry" />
        </mxCell>
        <mxCell id="MgRHkxXf5tO4-Bg70ejf-39" style="edgeStyle=orthogonalEdgeStyle;rounded=0;orthogonalLoop=1;jettySize=auto;html=1;entryX=0.5;entryY=0;entryDx=0;entryDy=0;strokeColor=#FF3333;" edge="1" parent="MgRHkxXf5tO4-Bg70ejf-1" source="MgRHkxXf5tO4-Bg70ejf-40" target="MgRHkxXf5tO4-Bg70ejf-38">
          <mxGeometry relative="1" as="geometry" />
        </mxCell>
        <mxCell id="MgRHkxXf5tO4-Bg70ejf-40" value="Cập nhật trạng thái" style="rounded=1;whiteSpace=wrap;html=1;arcSize=40;fontColor=#000000;fillColor=#ffffc0;strokeColor=#ff0000;" vertex="1" parent="MgRHkxXf5tO4-Bg70ejf-1">
          <mxGeometry x="660" y="840" width="120" height="40" as="geometry" />
        </mxCell>
        <mxCell id="MgRHkxXf5tO4-Bg70ejf-41" value="yes" style="text;html=1;strokeColor=none;fillColor=none;align=center;verticalAlign=middle;whiteSpace=wrap;rounded=0;" vertex="1" parent="MgRHkxXf5tO4-Bg70ejf-1">
          <mxGeometry x="705" y="790" width="60" height="30" as="geometry" />
        </mxCell>
      </root>
    </mxGraphModel>
  </diagram>
  <diagram id="Wbtf_MWZQpYp_V40hfSS" name="Biểu đồ hoạt động đặt vé và thanh toán">
    <mxGraphModel dx="1180" dy="661" grid="1" gridSize="10" guides="1" tooltips="1" connect="1" arrows="1" fold="1" page="1" pageScale="1" pageWidth="827" pageHeight="1169" math="0" shadow="0">
      <root>
        <mxCell id="0" />
        <mxCell id="1" parent="0" />
        <mxCell id="63ZvNAaQ1wf9LXjYWSJL-1" value="" style="rounded=0;whiteSpace=wrap;html=1;fillColor=none;" vertex="1" parent="1">
          <mxGeometry x="400" y="120" width="360" height="600" as="geometry" />
        </mxCell>
        <mxCell id="63ZvNAaQ1wf9LXjYWSJL-2" value="" style="rounded=0;whiteSpace=wrap;html=1;fillColor=none;" vertex="1" parent="1">
          <mxGeometry x="50" y="120" width="350" height="600" as="geometry" />
        </mxCell>
        <mxCell id="63ZvNAaQ1wf9LXjYWSJL-3" value="" style="ellipse;html=1;shape=startState;fillColor=#000000;strokeColor=#ff0000;" vertex="1" parent="1">
          <mxGeometry x="205" y="170" width="30" height="30" as="geometry" />
        </mxCell>
        <mxCell id="63ZvNAaQ1wf9LXjYWSJL-4" value="" style="edgeStyle=orthogonalEdgeStyle;html=1;verticalAlign=bottom;endArrow=open;endSize=8;strokeColor=#ff0000;rounded=0;" edge="1" parent="1" source="63ZvNAaQ1wf9LXjYWSJL-3" target="63ZvNAaQ1wf9LXjYWSJL-6">
          <mxGeometry relative="1" as="geometry">
            <mxPoint x="220" y="260" as="targetPoint" />
          </mxGeometry>
        </mxCell>
        <mxCell id="63ZvNAaQ1wf9LXjYWSJL-5" style="edgeStyle=orthogonalEdgeStyle;rounded=0;orthogonalLoop=1;jettySize=auto;html=1;entryX=0;entryY=0.5;entryDx=0;entryDy=0;strokeColor=#FF3333;" edge="1" parent="1" source="63ZvNAaQ1wf9LXjYWSJL-6" target="63ZvNAaQ1wf9LXjYWSJL-8">
          <mxGeometry relative="1" as="geometry" />
        </mxCell>
        <mxCell id="63ZvNAaQ1wf9LXjYWSJL-6" value="Yêu cầu lập hoá đơn thanh toán" style="rounded=0;whiteSpace=wrap;html=1;" vertex="1" parent="1">
          <mxGeometry x="160" y="260" width="120" height="60" as="geometry" />
        </mxCell>
        <mxCell id="63ZvNAaQ1wf9LXjYWSJL-7" style="edgeStyle=orthogonalEdgeStyle;rounded=0;orthogonalLoop=1;jettySize=auto;html=1;entryX=1;entryY=0.5;entryDx=0;entryDy=0;strokeColor=#FF3333;" edge="1" parent="1" source="63ZvNAaQ1wf9LXjYWSJL-8" target="63ZvNAaQ1wf9LXjYWSJL-10">
          <mxGeometry relative="1" as="geometry">
            <Array as="points">
              <mxPoint x="580" y="390" />
            </Array>
          </mxGeometry>
        </mxCell>
        <mxCell id="63ZvNAaQ1wf9LXjYWSJL-8" value="Hiển thị số tiền cần thanh toán" style="rounded=0;whiteSpace=wrap;html=1;" vertex="1" parent="1">
          <mxGeometry x="520" y="260" width="120" height="60" as="geometry" />
        </mxCell>
        <mxCell id="63ZvNAaQ1wf9LXjYWSJL-9" style="edgeStyle=orthogonalEdgeStyle;rounded=0;orthogonalLoop=1;jettySize=auto;html=1;entryX=0.5;entryY=0;entryDx=0;entryDy=0;strokeColor=#FF3333;" edge="1" parent="1" source="63ZvNAaQ1wf9LXjYWSJL-10" target="63ZvNAaQ1wf9LXjYWSJL-13">
          <mxGeometry relative="1" as="geometry">
            <Array as="points">
              <mxPoint x="220" y="440" />
              <mxPoint x="580" y="440" />
            </Array>
          </mxGeometry>
        </mxCell>
        <mxCell id="63ZvNAaQ1wf9LXjYWSJL-10" value="Xác nhận thanh toán" style="rounded=0;whiteSpace=wrap;html=1;" vertex="1" parent="1">
          <mxGeometry x="160" y="360" width="120" height="60" as="geometry" />
        </mxCell>
        <mxCell id="63ZvNAaQ1wf9LXjYWSJL-11" value="&lt;font style=&quot;font-size: 16px;&quot;&gt;Người dùng&lt;/font&gt;" style="text;html=1;strokeColor=none;fillColor=none;align=center;verticalAlign=middle;whiteSpace=wrap;rounded=0;" vertex="1" parent="1">
          <mxGeometry x="160" y="130" width="120" height="30" as="geometry" />
        </mxCell>
        <mxCell id="63ZvNAaQ1wf9LXjYWSJL-12" value="&lt;font style=&quot;font-size: 16px;&quot;&gt;Hệ thống&lt;/font&gt;" style="text;html=1;strokeColor=none;fillColor=none;align=center;verticalAlign=middle;whiteSpace=wrap;rounded=0;" vertex="1" parent="1">
          <mxGeometry x="500" y="130" width="160" height="30" as="geometry" />
        </mxCell>
        <mxCell id="63ZvNAaQ1wf9LXjYWSJL-13" value="" style="rhombus;whiteSpace=wrap;html=1;fontColor=#000000;fillColor=#ffffc0;strokeColor=#ff0000;" vertex="1" parent="1">
          <mxGeometry x="540" y="480" width="80" height="40" as="geometry" />
        </mxCell>
        <mxCell id="63ZvNAaQ1wf9LXjYWSJL-14" value="no" style="edgeStyle=orthogonalEdgeStyle;html=1;align=left;verticalAlign=bottom;endArrow=open;endSize=8;strokeColor=#ff0000;rounded=0;entryX=1;entryY=0.5;entryDx=0;entryDy=0;" edge="1" parent="1" source="63ZvNAaQ1wf9LXjYWSJL-13" target="63ZvNAaQ1wf9LXjYWSJL-8">
          <mxGeometry x="-1" relative="1" as="geometry">
            <mxPoint x="600" y="500" as="targetPoint" />
            <mxPoint as="offset" />
            <Array as="points">
              <mxPoint x="650" y="500" />
              <mxPoint x="650" y="290" />
            </Array>
          </mxGeometry>
        </mxCell>
        <mxCell id="63ZvNAaQ1wf9LXjYWSJL-15" value="yes" style="edgeStyle=orthogonalEdgeStyle;html=1;align=left;verticalAlign=top;endArrow=open;endSize=8;strokeColor=#ff0000;rounded=0;" edge="1" parent="1" source="63ZvNAaQ1wf9LXjYWSJL-13">
          <mxGeometry x="-1" relative="1" as="geometry">
            <mxPoint x="580" y="560" as="targetPoint" />
            <Array as="points" />
            <mxPoint as="offset" />
          </mxGeometry>
        </mxCell>
        <mxCell id="63ZvNAaQ1wf9LXjYWSJL-18" value="In hoá đơn thanh toán" style="rounded=1;whiteSpace=wrap;html=1;arcSize=40;fontColor=#000000;fillColor=#ffffc0;strokeColor=#ff0000;" vertex="1" parent="1">
          <mxGeometry x="520" y="560" width="120" height="40" as="geometry" />
        </mxCell>
        <mxCell id="63ZvNAaQ1wf9LXjYWSJL-19" value="" style="edgeStyle=orthogonalEdgeStyle;html=1;verticalAlign=bottom;endArrow=open;endSize=8;strokeColor=#ff0000;rounded=0;entryX=0.5;entryY=0;entryDx=0;entryDy=0;" edge="1" source="63ZvNAaQ1wf9LXjYWSJL-18" parent="1" target="63ZvNAaQ1wf9LXjYWSJL-20">
          <mxGeometry relative="1" as="geometry">
            <mxPoint x="580" y="640" as="targetPoint" />
          </mxGeometry>
        </mxCell>
        <mxCell id="63ZvNAaQ1wf9LXjYWSJL-20" value="" style="ellipse;html=1;shape=endState;fillColor=#000000;strokeColor=#ff0000;" vertex="1" parent="1">
          <mxGeometry x="565" y="650" width="30" height="30" as="geometry" />
        </mxCell>
      </root>
    </mxGraphModel>
  </diagram>
</mxfile>
